<svg width="48" height="48" viewBox="0 0 48 48" fill="none" xmlns="http://www.w3.org/2000/svg">
<path d="M7.05 40C6.25 40 5.55 39.6917 4.95 39.075C4.35 38.4583 4.05 37.7667 4.05 37V11C4.05 10.2333 4.35 9.54167 4.95 8.925C5.55 8.30833 6.25 8 7.05 8H21.05L24.05 11H41.05C41.8167 11 42.5083 11.3083 43.125 11.925C43.7417 12.5417 44.05 13.2333 44.05 14V37C44.05 37.7667 43.7417 38.4583 43.125 39.075C42.5083 39.6917 41.8167 40 41.05 40H7.05ZM7.05 11V37H41.05V14H22.8L19.8 11H7.05Z" fill="white"/>
</svg>
