<svg width="249" height="86" viewBox="0 0 249 86" fill="none" xmlns="http://www.w3.org/2000/svg">
<path d="M102.031 43.1323V19.897H115.304C116.522 19.897 117.617 20.1341 118.588 20.6083C119.581 21.0824 120.36 21.7486 120.924 22.6066C121.488 23.4647 121.77 24.4695 121.77 25.6211C121.77 26.547 121.601 27.3711 121.263 28.0937C120.924 28.8163 120.461 29.4147 119.874 29.8888C119.31 30.363 118.667 30.7131 117.945 30.9388V31.0743C118.802 31.255 119.559 31.5937 120.213 32.0904C120.89 32.5872 121.421 33.2308 121.804 34.0211C122.211 34.7888 122.414 35.7033 122.414 36.7646C122.414 38.1646 122.086 39.3388 121.432 40.2872C120.8 41.2356 119.953 41.9468 118.893 42.421C117.832 42.8952 116.647 43.1323 115.337 43.1323H102.031ZM107.076 39.0001H114.356C115.191 39.0001 115.868 38.763 116.387 38.2888C116.929 37.8146 117.2 37.0808 117.2 36.0872C117.2 35.5001 117.087 34.9921 116.861 34.563C116.635 34.134 116.297 33.8066 115.845 33.5808C115.394 33.3324 114.818 33.2082 114.119 33.2082H107.076V39.0001ZM107.076 29.2792H113.78C114.389 29.2792 114.897 29.1663 115.304 28.9405C115.733 28.6921 116.048 28.376 116.252 27.9921C116.477 27.5856 116.59 27.1228 116.59 26.6034C116.59 25.7227 116.342 25.0567 115.845 24.605C115.371 24.1534 114.739 23.9276 113.949 23.9276H107.076V29.2792Z" fill="#181F47"/>
<path d="M131.816 43.5388C130.01 43.5388 128.576 43.042 127.516 42.0484C126.455 41.0549 125.924 39.4517 125.924 37.2388V25.3163H130.631V36.4598C130.631 37.0469 130.698 37.5436 130.834 37.9501C130.969 38.334 131.161 38.6501 131.409 38.8985C131.68 39.1469 132.007 39.3275 132.391 39.4404C132.775 39.5533 133.204 39.6097 133.678 39.6097C134.377 39.6097 135.01 39.4404 135.574 39.1017C136.138 38.763 136.578 38.3001 136.894 37.713C137.21 37.1033 137.368 36.4259 137.368 35.6807V25.3163H142.075V43.1323H138.215L137.876 40.6936H137.639C137.21 41.2581 136.702 41.7549 136.116 42.1839C135.551 42.613 134.908 42.9404 134.186 43.1662C133.463 43.4146 132.673 43.5388 131.816 43.5388Z" fill="#181F47"/>
<path d="M153.606 43.5388C152.364 43.5388 151.247 43.4033 150.254 43.1323C149.261 42.8614 148.415 42.4888 147.715 42.0146C147.015 41.5179 146.473 40.9307 146.09 40.2533C145.728 39.5759 145.548 38.8082 145.548 37.9501C145.548 37.8598 145.548 37.7695 145.548 37.6791C145.548 37.5888 145.559 37.5211 145.582 37.4759H150.119C150.119 37.5211 150.119 37.5662 150.119 37.6114C150.119 37.6566 150.119 37.7017 150.119 37.7469C150.141 38.3114 150.322 38.7743 150.66 39.1356C150.999 39.4743 151.439 39.7227 151.981 39.8807C152.545 40.0388 153.132 40.1178 153.741 40.1178C154.283 40.1178 154.802 40.0727 155.299 39.9823C155.818 39.8695 156.247 39.6775 156.586 39.4065C156.947 39.1356 157.127 38.7856 157.127 38.3565C157.127 37.8146 156.901 37.3969 156.45 37.1033C156.021 36.8098 155.445 36.5727 154.723 36.392C154.023 36.2114 153.256 36.0082 152.421 35.7824C151.653 35.6017 150.886 35.3985 150.119 35.1727C149.351 34.9243 148.652 34.6082 148.019 34.2243C147.41 33.8405 146.913 33.3437 146.53 32.734C146.146 32.1018 145.954 31.3114 145.954 30.363C145.954 29.4373 146.157 28.6356 146.564 27.9582C146.97 27.2583 147.523 26.6825 148.223 26.2308C148.945 25.7792 149.78 25.4518 150.728 25.2486C151.699 25.0228 152.737 24.9099 153.843 24.9099C154.882 24.9099 155.852 25.0228 156.755 25.2486C157.658 25.4518 158.448 25.7679 159.125 26.1969C159.802 26.6034 160.333 27.1228 160.716 27.755C161.1 28.3647 161.292 29.0534 161.292 29.8211C161.292 29.9792 161.292 30.1259 161.292 30.2614C161.292 30.3969 161.281 30.4873 161.258 30.5324H156.755V30.2614C156.755 29.855 156.631 29.5163 156.382 29.2453C156.134 28.9518 155.773 28.726 155.299 28.5679C154.848 28.4099 154.294 28.3308 153.64 28.3308C153.189 28.3308 152.771 28.3647 152.387 28.4324C152.026 28.5002 151.71 28.6018 151.439 28.7372C151.168 28.8727 150.954 29.0421 150.796 29.2453C150.66 29.426 150.593 29.6518 150.593 29.9227C150.593 30.3066 150.751 30.6227 151.067 30.8711C151.405 31.0969 151.845 31.2889 152.387 31.4469C152.929 31.605 153.527 31.7743 154.182 31.955C154.994 32.1808 155.841 32.4066 156.721 32.6324C157.624 32.8356 158.459 33.1179 159.226 33.4792C159.994 33.8405 160.615 34.3598 161.089 35.0372C161.563 35.6921 161.8 36.584 161.8 37.713C161.8 38.7969 161.585 39.7114 161.156 40.4565C160.75 41.2017 160.174 41.8001 159.43 42.2517C158.685 42.7033 157.816 43.0307 156.823 43.2339C155.83 43.4372 154.757 43.5388 153.606 43.5388Z" fill="#181F47"/>
<path d="M165.208 22.7082V18.6437H169.914V22.7082H165.208ZM165.208 43.1323V25.3163H169.914V43.1323H165.208Z" fill="#181F47"/>
<path d="M174.235 43.1323V25.3163H178.128L178.501 27.755H178.738C179.144 27.1679 179.629 26.6599 180.194 26.2308C180.78 25.8018 181.435 25.4744 182.157 25.2486C182.879 25.0228 183.67 24.9099 184.527 24.9099C185.701 24.9099 186.728 25.1244 187.608 25.5534C188.489 25.9824 189.166 26.6599 189.64 27.5856C190.137 28.5115 190.385 29.7195 190.385 31.2098V43.1323H185.679V31.955C185.679 31.3905 185.611 30.9163 185.475 30.5324C185.34 30.1259 185.137 29.7986 184.866 29.5501C184.618 29.2792 184.301 29.0873 183.918 28.9743C183.534 28.8615 183.105 28.805 182.631 28.805C181.931 28.805 181.3 28.9743 180.735 29.3131C180.171 29.6518 179.731 30.1147 179.415 30.7018C179.099 31.2889 178.941 31.9663 178.941 32.734V43.1323H174.235Z" fill="#181F47"/>
<path d="M202.694 43.5388C200.731 43.5388 199.083 43.2114 197.751 42.5565C196.42 41.8791 195.415 40.8517 194.738 39.4743C194.061 38.0969 193.722 36.3469 193.722 34.2243C193.722 32.0792 194.061 30.3292 194.738 28.9743C195.415 27.597 196.408 26.5808 197.717 25.926C199.049 25.2486 200.674 24.9099 202.593 24.9099C204.398 24.9099 205.922 25.2373 207.164 25.8921C208.405 26.5244 209.342 27.5179 209.974 28.8727C210.606 30.205 210.922 31.9324 210.922 34.055V35.2743H198.496C198.541 36.313 198.699 37.1937 198.97 37.9162C199.264 38.6388 199.704 39.1808 200.29 39.542C200.9 39.8807 201.701 40.0501 202.694 40.0501C203.236 40.0501 203.721 39.9823 204.15 39.8469C204.602 39.7114 204.986 39.5082 205.301 39.2372C205.617 38.9662 205.866 38.6275 206.046 38.2211C206.227 37.8146 206.317 37.3517 206.317 36.8324H210.922C210.922 37.9614 210.719 38.9437 210.312 39.7791C209.906 40.6146 209.342 41.3146 208.62 41.8791C207.897 42.421 207.028 42.8388 206.012 43.1323C205.019 43.4033 203.913 43.5388 202.694 43.5388ZM198.564 32.2937H206.08C206.08 31.6163 205.99 31.0292 205.809 30.5324C205.651 30.0357 205.426 29.6292 205.132 29.3131C204.839 28.9969 204.478 28.7711 204.049 28.6356C203.642 28.4776 203.179 28.3985 202.66 28.3985C201.803 28.3985 201.08 28.5453 200.494 28.8389C199.929 29.1098 199.489 29.5389 199.173 30.1259C198.879 30.6905 198.676 31.413 198.564 32.2937Z" fill="#181F47"/>
<path d="M221.587 43.5388C220.345 43.5388 219.228 43.4033 218.235 43.1323C217.242 42.8614 216.395 42.4888 215.695 42.0146C214.995 41.5179 214.454 40.9307 214.07 40.2533C213.709 39.5759 213.528 38.8082 213.528 37.9501C213.528 37.8598 213.528 37.7695 213.528 37.6791C213.528 37.5888 213.54 37.5211 213.562 37.4759H218.099C218.099 37.5211 218.099 37.5662 218.099 37.6114C218.099 37.6566 218.099 37.7017 218.099 37.7469C218.122 38.3114 218.302 38.7743 218.641 39.1356C218.98 39.4743 219.42 39.7227 219.961 39.8807C220.526 40.0388 221.113 40.1178 221.722 40.1178C222.264 40.1178 222.783 40.0727 223.28 39.9823C223.799 39.8695 224.228 39.6775 224.566 39.4065C224.927 39.1356 225.108 38.7856 225.108 38.3565C225.108 37.8146 224.882 37.3969 224.431 37.1033C224.002 36.8098 223.426 36.5727 222.704 36.392C222.004 36.2114 221.237 36.0082 220.402 35.7824C219.634 35.6017 218.867 35.3985 218.099 35.1727C217.332 34.9243 216.632 34.6082 216 34.2243C215.391 33.8405 214.894 33.3437 214.51 32.734C214.127 32.1018 213.935 31.3114 213.935 30.363C213.935 29.4373 214.138 28.6356 214.544 27.9582C214.95 27.2583 215.503 26.6825 216.203 26.2308C216.925 25.7792 217.761 25.4518 218.709 25.2486C219.679 25.0228 220.717 24.9099 221.824 24.9099C222.862 24.9099 223.832 25.0228 224.735 25.2486C225.639 25.4518 226.428 25.7679 227.106 26.1969C227.783 26.6034 228.313 27.1228 228.697 27.755C229.08 28.3647 229.272 29.0534 229.272 29.8211C229.272 29.9792 229.272 30.1259 229.272 30.2614C229.272 30.3969 229.261 30.4873 229.239 30.5324H224.735V30.2614C224.735 29.855 224.611 29.5163 224.363 29.2453C224.115 28.9518 223.754 28.726 223.28 28.5679C222.828 28.4099 222.275 28.3308 221.621 28.3308C221.169 28.3308 220.751 28.3647 220.368 28.4324C220.006 28.5002 219.691 28.6018 219.42 28.7372C219.149 28.8727 218.935 29.0421 218.776 29.2453C218.641 29.426 218.573 29.6518 218.573 29.9227C218.573 30.3066 218.731 30.6227 219.047 30.8711C219.386 31.0969 219.826 31.2889 220.368 31.4469C220.91 31.605 221.508 31.7743 222.162 31.955C222.975 32.1808 223.821 32.4066 224.702 32.6324C225.605 32.8356 226.439 33.1179 227.207 33.4792C227.975 33.8405 228.595 34.3598 229.069 35.0372C229.543 35.6921 229.78 36.584 229.78 37.713C229.78 38.7969 229.566 39.7114 229.137 40.4565C228.731 41.2017 228.155 41.8001 227.41 42.2517C226.665 42.7033 225.796 43.0307 224.803 43.2339C223.81 43.4372 222.738 43.5388 221.587 43.5388Z" fill="#181F47"/>
<path d="M240.4 43.5388C239.159 43.5388 238.042 43.4033 237.048 43.1323C236.055 42.8614 235.209 42.4888 234.509 42.0146C233.809 41.5179 233.268 40.9307 232.884 40.2533C232.523 39.5759 232.342 38.8082 232.342 37.9501C232.342 37.8598 232.342 37.7695 232.342 37.6791C232.342 37.5888 232.354 37.5211 232.376 37.4759H236.913C236.913 37.5211 236.913 37.5662 236.913 37.6114C236.913 37.6566 236.913 37.7017 236.913 37.7469C236.935 38.3114 237.116 38.7743 237.455 39.1356C237.794 39.4743 238.234 39.7227 238.775 39.8807C239.339 40.0388 239.927 40.1178 240.536 40.1178C241.077 40.1178 241.597 40.0727 242.094 39.9823C242.613 39.8695 243.042 39.6775 243.38 39.4065C243.741 39.1356 243.922 38.7856 243.922 38.3565C243.922 37.8146 243.696 37.3969 243.245 37.1033C242.816 36.8098 242.24 36.5727 241.517 36.392C240.818 36.2114 240.05 36.0082 239.216 35.7824C238.448 35.6017 237.68 35.3985 236.913 35.1727C236.146 34.9243 235.446 34.6082 234.814 34.2243C234.205 33.8405 233.708 33.3437 233.324 32.734C232.94 32.1018 232.749 31.3114 232.749 30.363C232.749 29.4373 232.951 28.6356 233.358 27.9582C233.764 27.2583 234.317 26.6825 235.017 26.2308C235.739 25.7792 236.575 25.4518 237.522 25.2486C238.493 25.0228 239.531 24.9099 240.637 24.9099C241.676 24.9099 242.646 25.0228 243.549 25.2486C244.452 25.4518 245.242 25.7679 245.919 26.1969C246.597 26.6034 247.127 27.1228 247.51 27.755C247.894 28.3647 248.086 29.0534 248.086 29.8211C248.086 29.9792 248.086 30.1259 248.086 30.2614C248.086 30.3969 248.075 30.4873 248.053 30.5324H243.549V30.2614C243.549 29.855 243.425 29.5163 243.177 29.2453C242.928 28.9518 242.568 28.726 242.094 28.5679C241.642 28.4099 241.089 28.3308 240.434 28.3308C239.983 28.3308 239.565 28.3647 239.182 28.4324C238.82 28.5002 238.505 28.6018 238.234 28.7372C237.963 28.8727 237.748 29.0421 237.59 29.2453C237.455 29.426 237.387 29.6518 237.387 29.9227C237.387 30.3066 237.545 30.6227 237.861 30.8711C238.2 31.0969 238.64 31.2889 239.182 31.4469C239.723 31.605 240.321 31.7743 240.976 31.955C241.789 32.1808 242.635 32.4066 243.515 32.6324C244.418 32.8356 245.253 33.1179 246.021 33.4792C246.788 33.8405 247.409 34.3598 247.883 35.0372C248.357 35.6921 248.594 36.584 248.594 37.713C248.594 38.7969 248.379 39.7114 247.951 40.4565C247.544 41.2017 246.969 41.8001 246.224 42.2517C245.479 42.7033 244.61 43.0307 243.617 43.2339C242.624 43.4372 241.551 43.5388 240.4 43.5388Z" fill="#181F47"/>
<path d="M112.426 80.5849C110.011 80.5849 107.945 80.1673 106.23 79.3316C104.514 78.4738 103.205 77.1528 102.302 75.3688C101.422 73.5847 100.982 71.3154 100.982 68.5607C100.982 64.4963 101.975 61.4818 103.961 59.5172C105.97 57.53 108.792 56.5366 112.426 56.5366C114.412 56.5366 116.195 56.8753 117.775 57.5527C119.355 58.2302 120.597 59.2463 121.5 60.6011C122.425 61.9559 122.888 63.6606 122.888 65.7156H117.809C117.809 64.6317 117.583 63.7172 117.132 62.9721C116.703 62.2269 116.082 61.6622 115.27 61.2785C114.48 60.8721 113.554 60.6689 112.493 60.6689C111.049 60.6689 109.852 60.9509 108.904 61.5156C107.979 62.0803 107.29 62.9154 106.839 64.0221C106.41 65.1059 106.196 66.438 106.196 68.0188V69.0688C106.196 70.6946 106.422 72.0605 106.873 73.1672C107.324 74.251 108.001 75.075 108.904 75.6397C109.83 76.1817 111.015 76.4526 112.46 76.4526C113.588 76.4526 114.57 76.2605 115.405 75.8768C116.241 75.4931 116.884 74.9284 117.335 74.1833C117.786 73.4381 118.012 72.5236 118.012 71.4398H122.888C122.888 73.4948 122.437 75.1994 121.533 76.5542C120.653 77.9091 119.423 78.9252 117.843 79.6026C116.263 80.2573 114.457 80.5849 112.426 80.5849Z" fill="#181F47"/>
<path d="M134.549 80.5849C132.585 80.5849 130.937 80.2573 129.605 79.6027C128.273 78.9252 127.269 77.898 126.592 76.5204C125.915 75.1428 125.576 73.3932 125.576 71.2705C125.576 69.1255 125.915 67.3753 126.592 66.0205C127.269 64.6429 128.262 63.6268 129.572 62.9721C130.903 62.2947 132.528 61.956 134.447 61.956C136.253 61.956 137.776 62.2836 139.018 62.9382C140.259 63.5707 141.196 64.564 141.828 65.9189C142.46 67.2509 142.776 68.9784 142.776 71.1011V72.3204H130.35C130.395 73.3593 130.553 74.24 130.824 74.9624C131.117 75.6848 131.558 76.2267 132.145 76.5882C132.754 76.9269 133.555 77.0962 134.549 77.0962C135.09 77.0962 135.576 77.0285 136.005 76.893C136.456 76.7575 136.839 76.5543 137.156 76.2833C137.472 76.0124 137.72 75.6737 137.901 75.2672C138.081 74.8608 138.172 74.3977 138.172 73.8785H142.776C142.776 75.0073 142.573 75.9896 142.167 76.8253C141.76 77.6609 141.196 78.3606 140.474 78.9252C139.751 79.4672 138.883 79.8847 137.867 80.1785C136.873 80.4494 135.768 80.5849 134.549 80.5849ZM130.418 69.3398H137.935C137.935 68.6624 137.844 68.0755 137.664 67.5785C137.505 67.0816 137.28 66.6751 136.986 66.3592C136.693 66.0432 136.332 65.8173 135.903 65.6818C135.497 65.5235 135.034 65.4447 134.515 65.4447C133.657 65.4447 132.935 65.5913 132.348 65.885C131.783 66.156 131.343 66.5852 131.027 67.1721C130.734 67.7368 130.531 68.4592 130.418 69.3398Z" fill="#181F47"/>
<path d="M146.229 80.1785V62.3624H150.123L150.495 64.8011H150.732C151.138 64.2142 151.624 63.7062 152.188 63.277C152.775 62.8477 153.429 62.5207 154.152 62.2947C154.874 62.0687 155.664 61.956 156.522 61.956C157.695 61.956 158.723 62.1703 159.603 62.5995C160.483 63.0287 161.161 63.7062 161.635 64.6318C162.131 65.5574 162.379 66.7656 162.379 68.256V80.1785H157.673V69.0011C157.673 68.4364 157.606 67.9622 157.47 67.5785C157.335 67.1721 157.131 66.8445 156.861 66.5963C156.612 66.3253 156.296 66.1332 155.913 66.0205C155.529 65.9078 155.099 65.8511 154.626 65.8511C153.926 65.8511 153.294 66.0205 152.73 66.3592C152.165 66.6979 151.725 67.161 151.409 67.7479C151.093 68.3348 150.935 69.0122 150.935 69.7801V80.1785H146.229Z" fill="#181F47"/>
<path d="M171.913 80.5849C170.784 80.5849 169.87 80.3817 169.17 79.9752C168.47 79.5688 167.962 79.0268 167.647 78.3494C167.33 77.6492 167.173 76.8819 167.173 76.0462V65.9866H164.972V62.3624H167.342L168.222 57.2818H171.879V62.3624H175.129V65.9866H171.879V75.2672C171.879 75.8091 172.003 76.2267 172.251 76.5204C172.499 76.7914 172.906 76.9268 173.47 76.9268H175.129V80.043C174.858 80.1335 174.542 80.2123 174.181 80.2801C173.82 80.3705 173.436 80.4383 173.03 80.4833C172.624 80.551 172.251 80.5849 171.913 80.5849Z" fill="#181F47"/>
<path d="M186.261 80.5849C184.297 80.5849 182.65 80.2573 181.318 79.6027C179.986 78.9252 178.982 77.898 178.305 76.5204C177.628 75.1428 177.289 73.3932 177.289 71.2705C177.289 69.1255 177.628 67.3753 178.305 66.0205C178.982 64.6429 179.975 63.6268 181.284 62.9721C182.616 62.2947 184.241 61.956 186.16 61.956C187.966 61.956 189.489 62.2836 190.731 62.9382C191.972 63.5707 192.909 64.564 193.541 65.9189C194.173 67.2509 194.489 68.9784 194.489 71.1011V72.3204H182.063C182.108 73.3593 182.266 74.24 182.537 74.9624C182.83 75.6848 183.27 76.2267 183.858 76.5882C184.467 76.9269 185.268 77.0962 186.261 77.0962C186.803 77.0962 187.288 77.0285 187.717 76.893C188.169 76.7575 188.552 76.5543 188.869 76.2833C189.184 76.0124 189.433 75.6737 189.613 75.2672C189.794 74.8608 189.884 74.3977 189.884 73.8785H194.489C194.489 75.0073 194.286 75.9896 193.88 76.8253C193.473 77.6609 192.909 78.3606 192.187 78.9252C191.464 79.4672 190.595 79.8847 189.58 80.1785C188.586 80.4494 187.48 80.5849 186.261 80.5849ZM182.13 69.3398H189.647C189.647 68.6624 189.557 68.0755 189.376 67.5785C189.218 67.0816 188.992 66.6751 188.699 66.3592C188.406 66.0432 188.044 65.8173 187.616 65.6818C187.21 65.5235 186.747 65.4447 186.228 65.4447C185.37 65.4447 184.647 65.5913 184.061 65.885C183.496 66.156 183.056 66.5852 182.74 67.1721C182.447 67.7368 182.244 68.4592 182.13 69.3398Z" fill="#181F47"/>
<path d="M197.942 80.1785V62.3624H201.836L202.208 65.1398H202.445C202.671 64.5529 202.964 64.0221 203.326 63.5479C203.686 63.051 204.138 62.6562 204.68 62.3624C205.222 62.0687 205.853 61.9221 206.576 61.9221C206.959 61.9221 207.309 61.9671 207.625 62.0576C207.941 62.1253 208.178 62.1931 208.337 62.2608V66.5285H206.881C206.181 66.5285 205.56 66.6302 205.018 66.8334C204.499 67.0138 204.059 67.3076 203.698 67.714C203.337 68.1205 203.066 68.6174 202.885 69.2043C202.727 69.7913 202.648 70.4803 202.648 71.2705V80.1785H197.942Z" fill="#181F47"/>
<mask id="mask0_11_2" style="mask-type:alpha" maskUnits="userSpaceOnUse" x="24" y="14" width="52" height="70">
<path d="M34.1225 15.0889C28.409 14.8772 25.9225 20.4694 25.3935 23.292C25.4817 39.4335 25.658 72.6692 25.658 76.4797C25.658 80.2901 30.3311 82.4774 32.2709 83.0951H57.6645C60.0451 82.5658 70.8903 79.3904 74.5935 67.2181C77.5561 57.4803 69.656 50.1064 65.3354 47.6366C71.049 42.9794 72.8302 36.6992 73.0064 34.1412C74.2761 19.9578 62.0729 15.53 55.8128 15.0889C50.9634 15.1771 39.8361 15.3006 34.1225 15.0889Z" fill="black" stroke="black"/>
</mask>
<g mask="url(#mask0_11_2)">
<path d="M70.3612 15.0831H20.1032V21.4338H70.3612V15.0831Z" fill="#181F47"/>
<path d="M75.1225 25.1384H41.2645V31.4892H75.1225V25.1384Z" fill="#181F47"/>
<path d="M75.1225 35.1938H50.787V41.5446H75.1225V35.1938Z" fill="#181F47"/>
<path d="M73.5354 44.9846H6.87739V51.3354H73.5354V44.9846Z" fill="#181F47"/>
<path d="M78.8257 55.8339H42.8516V62.1846H78.8257V55.8339Z" fill="#181F47"/>
<path d="M77.7677 65.8892H48.1419V72.24H77.7677V65.8892Z" fill="#181F47"/>
<path d="M73.5354 77.0031H21.6903V83.3538H73.5354V77.0031Z" fill="#181F47"/>
</g>
<path d="M88.0838 13.2308V86" stroke="#181F47" stroke-width="3"/>
<path d="M0 44.9846H32.271V51.3354H3.18164L0 44.9846Z" fill="#181F47"/>
<path d="M7.166 61.92L4.76128 56.0984H17.9871L15.4106 61.92H7.166Z" fill="#181F47"/>
<path d="M10.1781 83.0892L8.23449 66.1538H14.8129L13.3178 83.0892H10.1781Z" fill="#181F47"/>
<path d="M2.3144 29.5889C0.082437 34.1943 3.89542 38.3522 6.08093 39.8555C3.81445 35.3901 5.90444 31.1932 6.19991 30.6404C6.19991 30.6404 9.50678 26.0922 11.0926 22.0231C12.7293 17.8232 11.5849 13.0043 10.8801 11.1465C10.336 14.4015 8.79423 21.4379 6.98018 23.5435C5.16609 25.6492 3.11379 28.4511 2.3144 29.5889Z" fill="#181F47"/>
<path d="M12.8076 26.4837C15.0928 23.6926 14.6494 18.0571 14.1421 15.5882C14.7731 16.6259 16.0221 19.7619 15.9701 24.0044C15.9049 29.3077 13.9636 31.3026 12.3788 33.7217C11.1109 35.6569 11.1407 39.71 11.3141 41.4946C10.6268 41.1074 9.04329 39.5679 8.2071 36.5069C7.16184 32.6807 9.951 29.9725 12.8076 26.4837Z" fill="#181F47"/>
<path d="M16.3744 32.9726C14.2149 35.7734 13.8247 39.9208 13.8935 41.2129C19.397 38.936 20.2015 36.4495 21.0133 31.6041C21.6627 27.7278 20.2515 23.7388 19.4648 22.2289C20.4161 24.8673 18.4111 30.3311 16.3744 32.9726Z" fill="#181F47"/>
<path d="M102.404 0.288635H103.522V6.40487C103.522 7.03635 103.373 7.60014 103.076 8.09629C102.781 8.58943 102.365 8.97884 101.826 9.26452C101.288 9.54718 100.657 9.68849 99.9331 9.68849C99.2083 9.68849 98.5772 9.54718 98.0391 9.26452C97.5011 8.97884 97.0832 8.58943 96.7859 8.09629C96.4912 7.60014 96.3441 7.03635 96.3441 6.40487V0.288635H97.462V6.31464C97.462 6.7657 97.5614 7.16712 97.7598 7.51896C97.9582 7.86777 98.2407 8.14292 98.6073 8.34435C98.9771 8.54281 99.4189 8.64204 99.9331 8.64204C100.447 8.64204 100.889 8.54281 101.258 8.34435C101.628 8.14292 101.911 7.86777 102.106 7.51896C102.305 7.16712 102.404 6.7657 102.404 6.31464V0.288635Z" fill="#181F47"/>
<path d="M106.675 5.35844V9.52613H105.611V2.59802H106.639V3.68054H106.729C106.891 3.32872 107.137 3.04606 107.468 2.83256C107.799 2.61606 108.226 2.50781 108.749 2.50781C109.218 2.50781 109.628 2.60403 109.98 2.79648C110.331 2.98592 110.605 3.27459 110.8 3.66249C110.996 4.04739 111.094 4.53452 111.094 5.12389V9.52613H110.029V5.19606C110.029 4.65179 109.888 4.22781 109.605 3.9241C109.323 3.61739 108.935 3.46403 108.442 3.46403C108.102 3.46403 107.799 3.53771 107.532 3.68505C107.267 3.83239 107.058 4.04739 106.905 4.33005C106.751 4.61271 106.675 4.9555 106.675 5.35844Z" fill="#181F47"/>
<path d="M113.038 9.52615V2.59804H114.102V9.52615H113.038ZM113.579 1.44335C113.372 1.44335 113.193 1.37269 113.042 1.23136C112.895 1.09004 112.821 0.920142 112.821 0.72168C112.821 0.523216 112.895 0.353322 113.042 0.211993C113.193 0.0706645 113.372 0 113.579 0C113.786 0 113.964 0.0706645 114.111 0.211993C114.261 0.353322 114.336 0.523216 114.336 0.72168C114.336 0.920142 114.261 1.09004 114.111 1.23136C113.964 1.37269 113.786 1.44335 113.579 1.44335Z" fill="#181F47"/>
<path d="M121.714 2.59802L119.153 9.52613H118.071L115.51 2.59802H116.664L118.576 8.11886H118.648L120.559 2.59802H121.714Z" fill="#181F47"/>
<path d="M125.774 9.67045C125.107 9.67045 124.531 9.52312 124.047 9.22844C123.566 8.93075 123.195 8.51578 122.933 7.98353C122.675 7.44832 122.546 6.82584 122.546 6.11619C122.546 5.40655 122.675 4.7811 122.933 4.23984C123.195 3.69557 123.559 3.27159 124.025 2.96788C124.493 2.66117 125.04 2.50781 125.666 2.50781C126.027 2.50781 126.383 2.56795 126.734 2.68823C127.086 2.80851 127.406 3.00397 127.695 3.27459C127.983 3.54222 128.213 3.89704 128.384 4.33907C128.556 4.7811 128.642 5.32536 128.642 5.97187V6.42293H123.303V5.50276H127.56C127.56 5.11187 127.481 4.76306 127.325 4.45634C127.172 4.14963 126.952 3.90756 126.667 3.73016C126.384 3.55274 126.05 3.46403 125.666 3.46403C125.242 3.46403 124.875 3.56928 124.566 3.77977C124.259 3.98725 124.023 4.25788 123.857 4.59166C123.692 4.92543 123.61 5.28326 123.61 5.66513V6.27856C123.61 6.80181 123.7 7.24531 123.88 7.60915C124.064 7.97003 124.318 8.24513 124.642 8.43459C124.967 8.62104 125.344 8.71424 125.774 8.71424C126.054 8.71424 126.306 8.67513 126.531 8.59696C126.76 8.51578 126.957 8.39548 127.122 8.23613C127.287 8.07376 127.415 7.87229 127.505 7.63175L128.534 7.92039C128.425 8.26921 128.243 8.5759 127.988 8.84051C127.732 9.10217 127.417 9.30661 127.041 9.45394C126.665 9.59832 126.243 9.67045 125.774 9.67045Z" fill="#181F47"/>
<path d="M130.26 9.52617V2.59806H131.288V3.64449H131.36C131.487 3.3017 131.715 3.02355 132.046 2.81006C132.377 2.59656 132.749 2.48981 133.164 2.48981C133.242 2.48981 133.34 2.49132 133.457 2.49432C133.574 2.49733 133.663 2.50184 133.723 2.50785V3.59037C133.687 3.58135 133.604 3.56782 133.475 3.54978C133.349 3.52872 133.215 3.5182 133.074 3.5182C132.737 3.5182 132.436 3.58887 132.172 3.7302C131.91 3.86852 131.703 4.06097 131.55 4.30753C131.399 4.5511 131.324 4.82925 131.324 5.14198V9.52617H130.26Z" fill="#181F47"/>
<path d="M139.89 4.14963L138.934 4.42026C138.874 4.26089 138.785 4.10603 138.668 3.95568C138.554 3.80232 138.397 3.67603 138.199 3.5768C138.001 3.47756 137.747 3.42795 137.437 3.42795C137.013 3.42795 136.66 3.52568 136.378 3.72113C136.098 3.91358 135.958 4.15865 135.958 4.45634C135.958 4.72095 136.054 4.92994 136.247 5.0833C136.439 5.23666 136.74 5.36447 137.148 5.46667L138.177 5.71927C138.796 5.86962 139.257 6.09968 139.561 6.40939C139.864 6.71608 140.016 7.11152 140.016 7.59566C140.016 7.99258 139.902 8.34738 139.673 8.6601C139.448 8.97282 139.132 9.21944 138.726 9.39986C138.321 9.58027 137.849 9.67045 137.311 9.67045C136.605 9.67045 136.02 9.51713 135.557 9.21039C135.094 8.9037 134.801 8.45566 134.678 7.86625L135.688 7.6137C135.784 7.98655 135.966 8.26619 136.233 8.45264C136.504 8.63909 136.857 8.73229 137.293 8.73229C137.789 8.73229 138.183 8.62702 138.474 8.41655C138.769 8.20305 138.916 7.94744 138.916 7.64974C138.916 7.40921 138.832 7.20773 138.664 7.04536C138.495 6.87998 138.237 6.75667 137.888 6.67548L136.734 6.40489C136.099 6.25453 135.634 6.02146 135.336 5.70572C135.041 5.38702 134.894 4.98858 134.894 4.51047C134.894 4.11956 135.004 3.77375 135.223 3.47306C135.446 3.17236 135.748 2.93631 136.129 2.76491C136.514 2.59351 136.95 2.50781 137.437 2.50781C138.122 2.50781 138.66 2.65816 139.051 2.95886C139.445 3.25956 139.725 3.65648 139.89 4.14963Z" fill="#181F47"/>
<path d="M141.618 9.52615V2.59804H142.682V9.52615H141.618ZM142.159 1.44335C141.951 1.44335 141.773 1.37269 141.622 1.23136C141.475 1.09004 141.401 0.920142 141.401 0.72168C141.401 0.523216 141.475 0.353322 141.622 0.211993C141.773 0.0706645 141.951 0 142.159 0C142.366 0 142.543 0.0706645 142.691 0.211993C142.841 0.353322 142.916 0.523216 142.916 0.72168C142.916 0.920142 142.841 1.09004 142.691 1.23136C142.543 1.37269 142.366 1.44335 142.159 1.44335Z" fill="#181F47"/>
<path d="M147.246 9.67044C146.669 9.67044 146.159 9.52463 145.718 9.23292C145.276 8.93825 144.93 8.52328 144.681 7.98807C144.431 7.44979 144.306 6.81381 144.306 6.08008C144.306 5.35239 144.431 4.72094 144.681 4.1857C144.93 3.65045 145.277 3.23699 145.722 2.94531C146.167 2.65363 146.681 2.5078 147.264 2.5078C147.715 2.5078 148.071 2.58297 148.333 2.73332C148.597 2.88066 148.799 3.04905 148.937 3.2385C149.078 3.42493 149.188 3.57828 149.266 3.69857H149.356V0.288635H150.42V9.52612H149.392V8.46162H149.266C149.188 8.58795 149.076 8.7473 148.932 8.93973C148.788 9.12919 148.582 9.29908 148.315 9.44943C148.047 9.59677 147.691 9.67044 147.246 9.67044ZM147.39 8.71422C147.817 8.71422 148.178 8.60298 148.472 8.38044C148.767 8.15493 148.991 7.84369 149.144 7.44677C149.298 7.04683 149.374 6.58529 149.374 6.06204C149.374 5.54487 149.299 5.09231 149.149 4.7044C148.998 4.3135 148.776 4.00979 148.481 3.79328C148.187 3.57377 147.823 3.46402 147.39 3.46402C146.939 3.46402 146.564 3.57979 146.263 3.81133C145.966 4.03986 145.741 4.35108 145.591 4.745C145.444 5.13591 145.371 5.57493 145.371 6.06204C145.371 6.55523 145.446 7.00327 145.596 7.40618C145.749 7.80612 145.975 8.12487 146.272 8.36239C146.573 8.59695 146.946 8.71422 147.39 8.71422Z" fill="#181F47"/>
<path d="M154.555 9.6885C154.116 9.6885 153.718 9.60583 153.36 9.44045C153.002 9.27205 152.718 9.02998 152.508 8.71424C152.297 8.39548 152.192 8.01063 152.192 7.55956C152.192 7.16264 152.27 6.84087 152.427 6.5943C152.583 6.34471 152.792 6.14927 153.053 6.00796C153.315 5.86661 153.603 5.7614 153.919 5.69223C154.238 5.62004 154.558 5.56293 154.879 5.52081C155.3 5.46667 155.641 5.42608 155.903 5.39903C156.168 5.36897 156.36 5.31933 156.48 5.25019C156.603 5.18103 156.665 5.06075 156.665 4.88935V4.85326C156.665 4.40823 156.543 4.06243 156.3 3.81585C156.059 3.56928 155.694 3.44599 155.204 3.44599C154.696 3.44599 154.298 3.55725 154.009 3.77977C153.721 4.00229 153.518 4.23984 153.401 4.49243L152.39 4.13159C152.571 3.71061 152.811 3.38285 153.112 3.1483C153.416 2.91075 153.746 2.74536 154.104 2.65214C154.465 2.55593 154.819 2.50781 155.168 2.50781C155.39 2.50781 155.646 2.53487 155.934 2.589C156.226 2.64012 156.507 2.74687 156.778 2.90924C157.051 3.07162 157.278 3.31669 157.458 3.64445C157.639 3.97222 157.729 4.41124 157.729 4.96152V9.52613H156.665V8.58796H156.611C156.538 8.73832 156.418 8.89915 156.25 9.07057C156.082 9.24199 155.858 9.38779 155.578 9.50809C155.299 9.62838 154.958 9.6885 154.555 9.6885ZM154.717 8.73229C155.138 8.73229 155.493 8.64962 155.781 8.48418C156.073 8.31885 156.292 8.10531 156.44 7.84371C156.59 7.58211 156.665 7.30696 156.665 7.01832V6.04406C156.62 6.09815 156.52 6.14779 156.367 6.19288C156.217 6.23495 156.043 6.27258 155.844 6.30566C155.649 6.33572 155.458 6.36276 155.271 6.38684C155.088 6.4079 154.94 6.4259 154.825 6.44098C154.549 6.47702 154.29 6.53566 154.05 6.61684C153.812 6.69507 153.62 6.81382 153.473 6.97318C153.328 7.12956 153.256 7.34306 153.256 7.6137C153.256 7.98353 153.393 8.26318 153.666 8.45264C153.943 8.63909 154.293 8.73229 154.717 8.73229Z" fill="#181F47"/>
<path d="M162.286 9.67044C161.709 9.67044 161.2 9.52463 160.757 9.23292C160.316 8.93825 159.97 8.52328 159.721 7.98807C159.471 7.44979 159.347 6.81381 159.347 6.08008C159.347 5.35239 159.471 4.72094 159.721 4.1857C159.97 3.65045 160.317 3.23699 160.762 2.94531C161.207 2.65363 161.721 2.5078 162.304 2.5078C162.755 2.5078 163.111 2.58297 163.373 2.73332C163.638 2.88066 163.839 3.04905 163.977 3.2385C164.118 3.42493 164.228 3.57828 164.306 3.69857H164.396V0.288635H165.461V9.52612H164.432V8.46162H164.306C164.228 8.58795 164.117 8.7473 163.972 8.93973C163.828 9.12919 163.622 9.29908 163.355 9.44943C163.087 9.59677 162.731 9.67044 162.286 9.67044ZM162.43 8.71422C162.857 8.71422 163.218 8.60298 163.513 8.38044C163.807 8.15493 164.031 7.84369 164.185 7.44677C164.338 7.04683 164.414 6.58529 164.414 6.06204C164.414 5.54487 164.339 5.09231 164.189 4.7044C164.039 4.3135 163.816 4.00979 163.522 3.79328C163.227 3.57377 162.864 3.46402 162.43 3.46402C161.98 3.46402 161.604 3.57979 161.303 3.81133C161.006 4.03986 160.782 4.35108 160.632 4.745C160.484 5.13591 160.41 5.57493 160.41 6.06204C160.41 6.55523 160.486 7.00327 160.636 7.40618C160.789 7.80612 161.015 8.12487 161.312 8.36239C161.613 8.59695 161.985 8.71422 162.43 8.71422Z" fill="#181F47"/>
<path d="M170.767 1.28094V0.288635H177.693V1.28094H174.789V9.52612H173.671V1.28094H170.767Z" fill="#181F47"/>
<path d="M180.37 9.6885C179.931 9.6885 179.533 9.60583 179.175 9.44045C178.818 9.27205 178.533 9.02998 178.323 8.71424C178.112 8.39548 178.007 8.01063 178.007 7.55956C178.007 7.16264 178.085 6.84087 178.241 6.5943C178.398 6.34471 178.607 6.14927 178.868 6.00796C179.13 5.86661 179.419 5.7614 179.734 5.69223C180.053 5.62004 180.373 5.56293 180.695 5.52081C181.115 5.46667 181.456 5.42608 181.718 5.39903C181.982 5.36897 182.175 5.31933 182.295 5.25019C182.418 5.18103 182.48 5.06075 182.48 4.88935V4.85326C182.48 4.40823 182.358 4.06243 182.114 3.81585C181.874 3.56928 181.509 3.44599 181.019 3.44599C180.511 3.44599 180.113 3.55725 179.824 3.77977C179.535 4.00229 179.333 4.23984 179.215 4.49243L178.205 4.13159C178.386 3.71061 178.627 3.38285 178.927 3.1483C179.231 2.91075 179.561 2.74536 179.919 2.65214C180.28 2.55593 180.634 2.50781 180.983 2.50781C181.206 2.50781 181.461 2.53487 181.749 2.589C182.041 2.64012 182.322 2.74687 182.593 2.90924C182.866 3.07162 183.093 3.31669 183.274 3.64445C183.454 3.97222 183.544 4.41124 183.544 4.96152V9.52613H182.48V8.58796H182.426C182.354 8.73832 182.234 8.89915 182.065 9.07057C181.897 9.24199 181.673 9.38779 181.393 9.50809C181.114 9.62838 180.773 9.6885 180.37 9.6885ZM180.532 8.73229C180.953 8.73229 181.308 8.64962 181.596 8.48418C181.888 8.31885 182.107 8.10531 182.255 7.84371C182.405 7.58211 182.48 7.30696 182.48 7.01832V6.04406C182.435 6.09815 182.336 6.14779 182.182 6.19288C182.032 6.23495 181.858 6.27258 181.66 6.30566C181.464 6.33572 181.273 6.36276 181.087 6.38684C180.904 6.4079 180.754 6.4259 180.641 6.44098C180.364 6.47702 180.105 6.53566 179.865 6.61684C179.628 6.69507 179.435 6.81382 179.288 6.97318C179.143 7.12956 179.072 7.34306 179.072 7.6137C179.072 7.98353 179.208 8.26318 179.482 8.45264C179.758 8.63909 180.108 8.73229 180.532 8.73229Z" fill="#181F47"/>
<path d="M185.486 9.52613V2.59802H186.514V3.68054H186.604C186.749 3.31068 186.982 3.02351 187.303 2.81903C187.625 2.61155 188.011 2.50781 188.462 2.50781C188.919 2.50781 189.299 2.61155 189.603 2.81903C189.909 3.02351 190.148 3.31068 190.32 3.68054H190.392C190.569 3.32271 190.835 3.03855 191.19 2.82806C191.545 2.61456 191.97 2.50781 192.466 2.50781C193.085 2.50781 193.591 2.70176 193.985 3.08966C194.379 3.47456 194.576 4.07445 194.576 4.88935V9.52613H193.512V4.88935C193.512 4.37816 193.372 4.01281 193.092 3.7933C192.813 3.57379 192.484 3.46403 192.105 3.46403C191.618 3.46403 191.241 3.61137 190.974 3.90606C190.706 4.19774 190.572 4.5676 190.572 5.01564V9.52613H189.49V4.7811C189.49 4.38718 189.362 4.06994 189.107 3.82939C188.851 3.58582 188.522 3.46403 188.12 3.46403C187.843 3.46403 187.584 3.53771 187.344 3.68505C187.106 3.83239 186.914 4.03687 186.767 4.29848C186.622 4.55708 186.55 4.85627 186.55 5.19606V9.52613H185.486Z" fill="#181F47"/>
<path d="M198.559 9.6885C198.12 9.6885 197.723 9.60583 197.364 9.44045C197.007 9.27205 196.723 9.02998 196.513 8.71424C196.302 8.39548 196.197 8.01063 196.197 7.55956C196.197 7.16264 196.275 6.84087 196.431 6.5943C196.588 6.34471 196.797 6.14927 197.058 6.00796C197.319 5.86661 197.608 5.7614 197.924 5.69223C198.243 5.62004 198.563 5.56293 198.884 5.52081C199.305 5.46667 199.646 5.42608 199.907 5.39903C200.172 5.36897 200.365 5.31933 200.485 5.25019C200.608 5.18103 200.67 5.06075 200.67 4.88935V4.85326C200.67 4.40823 200.548 4.06243 200.304 3.81585C200.064 3.56928 199.698 3.44599 199.209 3.44599C198.701 3.44599 198.302 3.55725 198.014 3.77977C197.725 4.00229 197.523 4.23984 197.405 4.49243L196.395 4.13159C196.576 3.71061 196.816 3.38285 197.117 3.1483C197.42 2.91075 197.751 2.74536 198.109 2.65214C198.47 2.55593 198.824 2.50781 199.173 2.50781C199.395 2.50781 199.651 2.53487 199.939 2.589C200.231 2.64012 200.512 2.74687 200.782 2.90924C201.056 3.07162 201.283 3.31669 201.463 3.64445C201.644 3.97222 201.734 4.41124 201.734 4.96152V9.52613H200.67V8.58796H200.615C200.543 8.73832 200.423 8.89915 200.255 9.07057C200.086 9.24199 199.862 9.38779 199.583 9.50809C199.303 9.62838 198.962 9.6885 198.559 9.6885ZM198.722 8.73229C199.142 8.73229 199.497 8.64962 199.786 8.48418C200.077 8.31885 200.297 8.10531 200.444 7.84371C200.595 7.58211 200.67 7.30696 200.67 7.01832V6.04406C200.624 6.09815 200.525 6.14779 200.372 6.19288C200.222 6.23495 200.048 6.27258 199.849 6.30566C199.653 6.33572 199.463 6.36276 199.276 6.38684C199.093 6.4079 198.944 6.4259 198.83 6.44098C198.554 6.47702 198.295 6.53566 198.054 6.61684C197.817 6.69507 197.625 6.81382 197.478 6.97318C197.333 7.12956 197.261 7.34306 197.261 7.6137C197.261 7.98353 197.398 8.26318 197.671 8.45264C197.948 8.63909 198.298 8.73229 198.722 8.73229Z" fill="#181F47"/>
<path d="M208.04 6.69353V2.59802H209.105V9.52613H208.04V8.35341H207.968C207.806 8.70525 207.554 9.00442 207.211 9.25099C206.868 9.49454 206.435 9.61637 205.912 9.61637C205.479 9.61637 205.095 9.52164 204.758 9.33217C204.421 9.13974 204.157 8.85105 203.965 8.46619C203.772 8.07827 203.676 7.58963 203.676 7.00028V2.59802H204.74V6.92809C204.74 7.43329 204.881 7.83619 205.164 8.1369C205.449 8.43761 205.813 8.58797 206.255 8.58797C206.519 8.58797 206.789 8.52028 207.062 8.38501C207.338 8.24968 207.57 8.04217 207.756 7.76253C207.946 7.48288 208.04 7.12655 208.04 6.69353Z" fill="#181F47"/>
<path d="M212.118 0.288635V9.52612H211.053V0.288635H212.118Z" fill="#181F47"/>
<path d="M214.066 9.52615V2.59804H215.13V9.52615H214.066ZM214.608 1.44335C214.4 1.44335 214.221 1.37269 214.071 1.23136C213.924 1.09004 213.85 0.920142 213.85 0.72168C213.85 0.523216 213.924 0.353322 214.071 0.211993C214.221 0.0706645 214.4 0 214.608 0C214.815 0 214.992 0.0706645 215.139 0.211993C215.29 0.353322 215.365 0.523216 215.365 0.72168C215.365 0.920142 215.29 1.09004 215.139 1.23136C214.992 1.37269 214.815 1.44335 214.608 1.44335Z" fill="#181F47"/>
<path d="M217.079 12.1242V2.59802H218.107V3.69858H218.234C218.312 3.5783 218.42 3.42494 218.558 3.23851C218.7 3.04907 218.901 2.88068 219.163 2.73333C219.427 2.58298 219.785 2.50781 220.235 2.50781C220.818 2.50781 221.333 2.65365 221.778 2.94533C222.222 3.23701 222.57 3.65047 222.819 4.18571C223.068 4.72095 223.193 5.35241 223.193 6.0801C223.193 6.81382 223.068 7.4498 222.819 7.98808C222.57 8.52329 222.224 8.93826 221.782 9.23294C221.34 9.52465 220.831 9.67045 220.253 9.67045C219.809 9.67045 219.452 9.59678 219.185 9.44945C218.918 9.29909 218.711 9.12921 218.567 8.93974C218.423 8.74732 218.312 8.58796 218.234 8.46164H218.143V12.1242H217.079ZM218.125 6.06205C218.125 6.5853 218.202 7.04684 218.355 7.44678C218.509 7.84371 218.732 8.15495 219.027 8.38045C219.322 8.60299 219.683 8.71424 220.109 8.71424C220.554 8.71424 220.925 8.59696 221.223 8.36241C221.524 8.12489 221.749 7.80613 221.899 7.40619C222.053 7.00329 222.129 6.55524 222.129 6.06205C222.129 5.57495 222.054 5.13592 221.903 4.74501C221.756 4.3511 221.533 4.03987 221.232 3.81134C220.934 3.5798 220.56 3.46403 220.109 3.46403C219.676 3.46403 219.313 3.57379 219.018 3.7933C218.723 4.0098 218.501 4.31351 218.351 4.70442C218.2 5.09232 218.125 5.54489 218.125 6.06205Z" fill="#181F47"/>
<path d="M227.72 9.67045C227.053 9.67045 226.477 9.52312 225.993 9.22844C225.512 8.93075 225.141 8.51578 224.879 7.98353C224.621 7.44832 224.492 6.82584 224.492 6.11619C224.492 5.40655 224.621 4.7811 224.879 4.23984C225.141 3.69557 225.505 3.27159 225.971 2.96788C226.439 2.66117 226.986 2.50781 227.612 2.50781C227.973 2.50781 228.329 2.56795 228.68 2.68823C229.032 2.80851 229.352 3.00397 229.641 3.27459C229.929 3.54222 230.16 3.89704 230.33 4.33907C230.502 4.7811 230.588 5.32536 230.588 5.97187V6.42293H225.249V5.50276H229.506C229.506 5.11187 229.427 4.76306 229.271 4.45634C229.118 4.14963 228.898 3.90756 228.613 3.73016C228.33 3.55274 227.996 3.46403 227.612 3.46403C227.188 3.46403 226.821 3.56928 226.512 3.77977C226.205 3.98725 225.969 4.25788 225.804 4.59166C225.638 4.92543 225.556 5.28326 225.556 5.66513V6.27856C225.556 6.80181 225.646 7.24531 225.826 7.60915C226.01 7.97003 226.264 8.24513 226.589 8.43459C226.913 8.62104 227.29 8.71424 227.72 8.71424C228 8.71424 228.252 8.67513 228.478 8.59696C228.706 8.51578 228.903 8.39548 229.068 8.23613C229.234 8.07376 229.361 7.87229 229.451 7.63175L230.48 7.92039C230.371 8.26921 230.189 8.5759 229.934 8.84051C229.678 9.10217 229.363 9.30661 228.987 9.45394C228.611 9.59832 228.189 9.67045 227.72 9.67045Z" fill="#181F47"/>
<path d="M235.02 9.67045C234.371 9.67045 233.812 9.51713 233.343 9.21039C232.874 8.9037 232.513 8.48122 232.26 7.94294C232.008 7.40471 231.882 6.78974 231.882 6.09815C231.882 5.39453 232.011 4.77358 232.269 4.23533C232.531 3.69407 232.895 3.27159 233.361 2.96788C233.829 2.66117 234.377 2.50781 235.002 2.50781C235.489 2.50781 235.928 2.59802 236.319 2.77844C236.709 2.95886 237.029 3.21145 237.279 3.5362C237.528 3.86095 237.683 4.23984 237.743 4.67285H236.679C236.598 4.35711 236.418 4.07746 236.138 3.8339C235.862 3.58732 235.489 3.46403 235.02 3.46403C234.605 3.46403 234.241 3.57229 233.929 3.78879C233.619 4.00229 233.377 4.30449 233.203 4.6954C233.032 5.0833 232.946 5.53885 232.946 6.06205C232.946 6.59732 233.03 7.06341 233.198 7.46033C233.37 7.85726 233.61 8.16548 233.919 8.385C234.232 8.60448 234.599 8.71424 235.02 8.71424C235.296 8.71424 235.547 8.66613 235.773 8.56992C235.998 8.4737 236.189 8.33536 236.346 8.15495C236.502 7.97453 236.613 7.75802 236.679 7.50542H237.743C237.683 7.91436 237.534 8.28276 237.297 8.61051C237.062 8.93525 236.751 9.19388 236.364 9.38631C235.979 9.57577 235.531 9.67045 235.02 9.67045Z" fill="#181F47"/>
<path d="M241.336 9.6885C240.898 9.6885 240.5 9.60583 240.142 9.44045C239.784 9.27205 239.5 9.02998 239.29 8.71424C239.079 8.39548 238.974 8.01063 238.974 7.55956C238.974 7.16264 239.052 6.84087 239.209 6.5943C239.365 6.34471 239.574 6.14927 239.835 6.00796C240.097 5.86661 240.385 5.7614 240.701 5.69223C241.02 5.62004 241.34 5.56293 241.661 5.52081C242.082 5.46667 242.423 5.42608 242.685 5.39903C242.949 5.36897 243.142 5.31933 243.262 5.25019C243.385 5.18103 243.447 5.06075 243.447 4.88935V4.85326C243.447 4.40823 243.325 4.06243 243.082 3.81585C242.841 3.56928 242.476 3.44599 241.986 3.44599C241.478 3.44599 241.08 3.55725 240.791 3.77977C240.503 4.00229 240.3 4.23984 240.183 4.49243L239.172 4.13159C239.353 3.71061 239.593 3.38285 239.894 3.1483C240.197 2.91075 240.528 2.74536 240.886 2.65214C241.247 2.55593 241.601 2.50781 241.95 2.50781C242.172 2.50781 242.428 2.53487 242.716 2.589C243.008 2.64012 243.289 2.74687 243.559 2.90924C243.833 3.07162 244.06 3.31669 244.24 3.64445C244.421 3.97222 244.511 4.41124 244.511 4.96152V9.52613H243.447V8.58796H243.393C243.32 8.73832 243.2 8.89915 243.032 9.07057C242.864 9.24199 242.639 9.38779 242.36 9.50809C242.081 9.62838 241.74 9.6885 241.336 9.6885ZM241.499 8.73229C241.92 8.73229 242.274 8.64962 242.563 8.48418C242.855 8.31885 243.074 8.10531 243.221 7.84371C243.372 7.58211 243.447 7.30696 243.447 7.01832V6.04406C243.402 6.09815 243.302 6.14779 243.149 6.19288C242.999 6.23495 242.825 6.27258 242.626 6.30566C242.431 6.33572 242.24 6.36276 242.053 6.38684C241.87 6.4079 241.722 6.4259 241.607 6.44098C241.331 6.47702 241.072 6.53566 240.832 6.61684C240.594 6.69507 240.402 6.81382 240.255 6.97318C240.11 7.12956 240.038 7.34306 240.038 7.6137C240.038 7.98353 240.175 8.26318 240.448 8.45264C240.725 8.63909 241.075 8.73229 241.499 8.73229Z" fill="#181F47"/>
</svg>
