<svg width="242" height="75" viewBox="0 0 242 75" fill="none" xmlns="http://www.w3.org/2000/svg">
<path d="M99.3246 37.5678V17.3301H112.245C113.431 17.3301 114.497 17.5366 115.442 17.9496C116.409 18.3626 117.167 18.9428 117.716 19.6902C118.266 20.4376 118.54 21.3127 118.54 22.3158C118.54 23.1222 118.375 23.84 118.046 24.4693C117.716 25.0987 117.266 25.6199 116.695 26.0329C116.145 26.4459 115.519 26.7508 114.816 26.9474V27.0654C115.651 27.2228 116.387 27.5178 117.024 27.9505C117.683 28.3832 118.2 28.9437 118.573 29.632C118.969 30.3008 119.167 31.0973 119.167 32.0216C119.167 33.241 118.848 34.2637 118.211 35.0898C117.595 35.9158 116.771 36.5353 115.739 36.9483C114.706 37.3613 113.553 37.5678 112.278 37.5678H99.3246ZM104.236 33.9687H111.322C112.135 33.9687 112.794 33.7622 113.3 33.3492C113.827 32.9362 114.091 32.297 114.091 31.4316C114.091 30.9203 113.981 30.4778 113.761 30.1041C113.541 29.7304 113.212 29.4452 112.772 29.2485C112.333 29.0322 111.773 28.924 111.091 28.924H104.236V33.9687ZM104.236 25.5019H110.762C111.355 25.5019 111.849 25.4036 112.245 25.2069C112.663 24.9906 112.97 24.7152 113.168 24.3808C113.388 24.0268 113.497 23.6237 113.497 23.1713C113.497 22.4043 113.256 21.8241 112.772 21.4307C112.311 21.0374 111.695 20.8407 110.927 20.8407H104.236V25.5019Z" fill="white"/>
<path d="M128.319 37.9218C126.561 37.9218 125.166 37.4892 124.133 36.6238C123.1 35.7584 122.584 34.3621 122.584 32.4346V22.0502H127.166V31.7561C127.166 32.2675 127.231 32.7001 127.363 33.0541C127.495 33.3885 127.682 33.6639 127.924 33.8802C128.187 34.0966 128.506 34.2539 128.879 34.3522C129.253 34.4506 129.67 34.4997 130.132 34.4997C130.813 34.4997 131.428 34.3522 131.978 34.0572C132.527 33.7622 132.955 33.359 133.263 32.8476C133.571 32.3166 133.725 31.7266 133.725 31.0776V22.0502H138.306V37.5678H134.549L134.219 35.4437H133.988C133.571 35.9354 133.076 36.3681 132.505 36.7418C131.956 37.1155 131.329 37.4007 130.626 37.5973C129.923 37.8137 129.154 37.9218 128.319 37.9218Z" fill="white"/>
<path d="M149.531 37.9218C148.323 37.9218 147.235 37.8038 146.268 37.5678C145.302 37.3318 144.478 37.0073 143.796 36.5943C143.115 36.1616 142.588 35.6503 142.214 35.0602C141.862 34.4702 141.687 33.8016 141.687 33.0542C141.687 32.9755 141.687 32.8968 141.687 32.8181C141.687 32.7395 141.698 32.6805 141.72 32.6411H146.136C146.136 32.6805 146.136 32.7198 146.136 32.7591C146.136 32.7985 146.136 32.8378 146.136 32.8772C146.159 33.3689 146.334 33.772 146.664 34.0867C146.993 34.3817 147.422 34.5981 147.949 34.7357C148.499 34.8734 149.07 34.9422 149.663 34.9422C150.191 34.9422 150.696 34.9029 151.179 34.8242C151.685 34.7259 152.102 34.5587 152.432 34.3227C152.784 34.0867 152.959 33.7819 152.959 33.4082C152.959 32.9362 152.739 32.5723 152.3 32.3166C151.882 32.061 151.322 31.8545 150.619 31.6971C149.938 31.5398 149.191 31.3628 148.378 31.1661C147.63 31.0088 146.884 30.8318 146.136 30.6351C145.389 30.4187 144.708 30.1434 144.093 29.809C143.5 29.4747 143.016 29.042 142.643 28.511C142.269 27.9603 142.082 27.2719 142.082 26.4459C142.082 25.6396 142.28 24.9414 142.676 24.3513C143.071 23.7417 143.609 23.2401 144.291 22.8468C144.994 22.4534 145.807 22.1682 146.73 21.9912C147.675 21.7946 148.685 21.6962 149.762 21.6962C150.773 21.6962 151.718 21.7946 152.597 21.9912C153.476 22.1682 154.245 22.4436 154.904 22.8173C155.563 23.1713 156.08 23.6237 156.453 24.1743C156.826 24.7053 157.013 25.3052 157.013 25.9739C157.013 26.1116 157.013 26.2394 157.013 26.3574C157.013 26.4754 157.002 26.5541 156.98 26.5934H152.597V26.3574C152.597 26.0034 152.476 25.7084 152.234 25.4724C151.993 25.2167 151.641 25.02 151.179 24.8823C150.74 24.7447 150.201 24.6758 149.564 24.6758C149.125 24.6758 148.718 24.7053 148.345 24.7643C147.993 24.8233 147.686 24.9118 147.422 25.0299C147.158 25.1479 146.95 25.2954 146.796 25.4724C146.664 25.6297 146.598 25.8264 146.598 26.0624C146.598 26.3968 146.752 26.6721 147.059 26.8884C147.389 27.0851 147.817 27.2523 148.345 27.3899C148.872 27.5276 149.455 27.6751 150.092 27.8325C150.883 28.0292 151.707 28.2258 152.564 28.4225C153.443 28.5995 154.255 28.8454 155.003 29.16C155.75 29.4747 156.354 29.927 156.815 30.5171C157.277 31.0874 157.508 31.8643 157.508 32.8477C157.508 33.7917 157.299 34.5882 156.881 35.2372C156.486 35.8863 155.926 36.4075 155.2 36.8008C154.475 37.1942 153.629 37.4793 152.663 37.6563C151.696 37.8333 150.652 37.9218 149.531 37.9218Z" fill="white"/>
<path d="M160.826 19.7787V16.2385H165.407V19.7787H160.826ZM160.826 37.5678V22.0502H165.407V37.5678H160.826Z" fill="white"/>
<path d="M169.613 37.5678V22.0502H173.403L173.766 24.1743H173.996C174.392 23.663 174.864 23.2205 175.414 22.8468C175.985 22.4731 176.622 22.1879 177.325 21.9912C178.028 21.7946 178.798 21.6962 179.632 21.6962C180.775 21.6962 181.775 21.8831 182.632 22.2567C183.489 22.6304 184.148 23.2205 184.609 24.0268C185.093 24.8332 185.335 25.8854 185.335 27.1834V37.5678H180.753V27.8325C180.753 27.3408 180.687 26.9278 180.555 26.5934C180.424 26.2394 180.226 25.9543 179.962 25.7379C179.721 25.5019 179.413 25.3347 179.039 25.2364C178.666 25.138 178.248 25.0889 177.787 25.0889C177.105 25.0889 176.49 25.2364 175.941 25.5314C175.391 25.8264 174.963 26.2296 174.656 26.7409C174.348 27.2523 174.194 27.8423 174.194 28.511V37.5678H169.613Z" fill="white"/>
<path d="M197.318 37.9218C195.406 37.9218 193.802 37.6367 192.505 37.0663C191.209 36.4763 190.231 35.5814 189.572 34.3817C188.913 33.182 188.583 31.6578 188.583 29.809C188.583 27.9406 188.913 26.4164 189.572 25.2364C190.231 24.0367 191.198 23.1516 192.472 22.5813C193.769 21.9912 195.351 21.6962 197.219 21.6962C198.976 21.6962 200.46 21.9814 201.668 22.5518C202.877 23.1025 203.789 23.9678 204.404 25.1479C205.019 26.3083 205.327 27.8128 205.327 29.6615V30.7236H193.231C193.274 31.6283 193.428 32.3953 193.692 33.0247C193.978 33.654 194.406 34.1261 194.977 34.4407C195.571 34.7357 196.351 34.8832 197.318 34.8832C197.845 34.8832 198.317 34.8242 198.735 34.7062C199.174 34.5882 199.548 34.4112 199.855 34.1752C200.163 33.9392 200.405 33.6442 200.581 33.2902C200.756 32.9362 200.844 32.533 200.844 32.0806H205.327C205.327 33.064 205.129 33.9196 204.734 34.6472C204.338 35.3749 203.789 35.9846 203.086 36.4763C202.383 36.9483 201.536 37.3122 200.548 37.5678C199.581 37.8038 198.504 37.9218 197.318 37.9218ZM193.296 28.1275H200.614C200.614 27.5374 200.525 27.0261 200.35 26.5934C200.196 26.1608 199.977 25.8067 199.691 25.5314C199.405 25.256 199.054 25.0594 198.636 24.9414C198.24 24.8037 197.79 24.7348 197.285 24.7348C196.45 24.7348 195.746 24.8627 195.175 25.1184C194.626 25.3544 194.197 25.7281 193.89 26.2394C193.604 26.7311 193.406 27.3604 193.296 28.1275Z" fill="white"/>
<path d="M215.709 37.9218C214.5 37.9218 213.412 37.8038 212.446 37.5678C211.479 37.3318 210.655 37.0073 209.974 36.5943C209.292 36.1616 208.765 35.6503 208.392 35.0602C208.04 34.4702 207.864 33.8016 207.864 33.0542C207.864 32.9755 207.864 32.8968 207.864 32.8181C207.864 32.7395 207.875 32.6805 207.897 32.6411H212.314C212.314 32.6805 212.314 32.7198 212.314 32.7591C212.314 32.7985 212.314 32.8378 212.314 32.8772C212.336 33.3689 212.512 33.772 212.841 34.0867C213.171 34.3817 213.599 34.5981 214.127 34.7357C214.676 34.8734 215.247 34.9422 215.841 34.9422C216.368 34.9422 216.873 34.9029 217.357 34.8242C217.862 34.7259 218.28 34.5587 218.609 34.3227C218.961 34.0867 219.137 33.7819 219.137 33.4082C219.137 32.9362 218.917 32.5723 218.477 32.3166C218.06 32.061 217.499 31.8545 216.796 31.6971C216.115 31.5398 215.368 31.3628 214.555 31.1661C213.808 31.0088 213.061 30.8318 212.314 30.6351C211.567 30.4187 210.886 30.1434 210.27 29.809C209.677 29.4747 209.193 29.042 208.82 28.511C208.447 27.9603 208.26 27.2719 208.26 26.4459C208.26 25.6396 208.458 24.9414 208.853 24.3513C209.249 23.7417 209.787 23.2401 210.468 22.8468C211.171 22.4534 211.984 22.1682 212.907 21.9912C213.852 21.7946 214.863 21.6962 215.939 21.6962C216.95 21.6962 217.895 21.7946 218.774 21.9912C219.653 22.1682 220.422 22.4436 221.081 22.8173C221.74 23.1713 222.257 23.6237 222.63 24.1743C223.004 24.7053 223.191 25.3052 223.191 25.9739C223.191 26.1116 223.191 26.2394 223.191 26.3574C223.191 26.4754 223.18 26.5541 223.158 26.5934H218.774V26.3574C218.774 26.0034 218.653 25.7084 218.411 25.4724C218.17 25.2167 217.818 25.02 217.357 24.8823C216.917 24.7447 216.379 24.6758 215.742 24.6758C215.302 24.6758 214.896 24.7053 214.522 24.7643C214.17 24.8233 213.863 24.9118 213.599 25.0299C213.336 25.1479 213.127 25.2954 212.973 25.4724C212.841 25.6297 212.775 25.8264 212.775 26.0624C212.775 26.3968 212.929 26.6721 213.237 26.8884C213.566 27.0851 213.995 27.2523 214.522 27.3899C215.05 27.5276 215.632 27.6751 216.269 27.8325C217.06 28.0292 217.884 28.2258 218.741 28.4225C219.62 28.5995 220.433 28.8454 221.18 29.16C221.927 29.4747 222.531 29.927 222.993 30.5171C223.454 31.0874 223.685 31.8643 223.685 32.8477C223.685 33.7917 223.476 34.5882 223.059 35.2372C222.663 35.8863 222.103 36.4075 221.378 36.8008C220.653 37.1942 219.807 37.4793 218.84 37.6563C217.873 37.8333 216.829 37.9218 215.709 37.9218Z" fill="white"/>
<path d="M234.023 37.9218C232.815 37.9218 231.727 37.8038 230.76 37.5678C229.794 37.3318 228.969 37.0073 228.289 36.5943C227.607 36.1616 227.08 35.6503 226.707 35.0602C226.355 34.4702 226.179 33.8016 226.179 33.0542C226.179 32.9755 226.179 32.8968 226.179 32.8181C226.179 32.7395 226.19 32.6805 226.212 32.6411H230.629C230.629 32.6805 230.629 32.7198 230.629 32.7591C230.629 32.7985 230.629 32.8378 230.629 32.8772C230.65 33.3689 230.826 33.772 231.156 34.0867C231.486 34.3817 231.914 34.5981 232.442 34.7357C232.991 34.8734 233.562 34.9422 234.156 34.9422C234.682 34.9422 235.188 34.9029 235.672 34.8242C236.177 34.7259 236.595 34.5587 236.924 34.3227C237.275 34.0867 237.452 33.7819 237.452 33.4082C237.452 32.9362 237.232 32.5723 236.792 32.3166C236.375 32.061 235.814 31.8545 235.111 31.6971C234.43 31.5398 233.683 31.3628 232.87 31.1661C232.123 31.0088 231.376 30.8318 230.629 30.6351C229.882 30.4187 229.2 30.1434 228.585 29.809C227.992 29.4747 227.508 29.042 227.135 28.511C226.761 27.9603 226.575 27.2719 226.575 26.4459C226.575 25.6396 226.772 24.9414 227.168 24.3513C227.564 23.7417 228.102 23.2401 228.783 22.8468C229.486 22.4534 230.299 22.1682 231.222 21.9912C232.167 21.7946 233.178 21.6962 234.254 21.6962C235.265 21.6962 236.21 21.7946 237.088 21.9912C237.968 22.1682 238.737 22.4436 239.396 22.8173C240.055 23.1713 240.571 23.6237 240.945 24.1743C241.319 24.7053 241.506 25.3052 241.506 25.9739C241.506 26.1116 241.506 26.2394 241.506 26.3574C241.506 26.4754 241.494 26.5541 241.473 26.5934H237.088V26.3574C237.088 26.0034 236.968 25.7084 236.726 25.4724C236.484 25.2167 236.133 25.02 235.672 24.8823C235.232 24.7447 234.694 24.6758 234.056 24.6758C233.617 24.6758 233.211 24.7053 232.837 24.7643C232.485 24.8233 232.178 24.9118 231.914 25.0299C231.651 25.1479 231.441 25.2954 231.288 25.4724C231.156 25.6297 231.09 25.8264 231.09 26.0624C231.09 26.3968 231.244 26.6721 231.552 26.8884C231.881 27.0851 232.31 27.2523 232.837 27.3899C233.364 27.5276 233.946 27.6751 234.584 27.8325C235.375 28.0292 236.199 28.2258 237.055 28.4225C237.935 28.5995 238.748 28.8454 239.495 29.16C240.242 29.4747 240.846 29.927 241.308 30.5171C241.769 31.0874 242 31.8643 242 32.8477C242 33.7917 241.791 34.5882 241.374 35.2372C240.978 35.8863 240.417 36.4075 239.692 36.8008C238.968 37.1942 238.122 37.4793 237.155 37.6563C236.188 37.8333 235.144 37.9218 234.023 37.9218Z" fill="white"/>
<path d="M109.444 70.1887C107.093 70.1887 105.082 69.825 103.412 69.0971C101.742 68.3499 100.468 67.1994 99.5885 65.6455C98.7316 64.0916 98.3031 62.115 98.3031 59.7158C98.3031 56.1756 99.2697 53.55 101.204 51.839C103.159 50.1081 105.906 49.2429 109.444 49.2429C111.377 49.2429 113.113 49.5379 114.651 50.1279C116.19 50.7179 117.398 51.6029 118.277 52.783C119.178 53.963 119.628 55.4478 119.628 57.2377H114.684C114.684 56.2936 114.464 55.4971 114.025 54.8481C113.607 54.199 113.003 53.7072 112.212 53.373C111.443 53.019 110.542 52.842 109.509 52.842C108.103 52.842 106.939 53.0877 106.016 53.5795C105.115 54.0714 104.444 54.7987 104.005 55.7626C103.587 56.7066 103.379 57.8669 103.379 59.2437V60.1583C103.379 61.5743 103.599 62.7641 104.038 63.7279C104.477 64.6719 105.137 65.3896 106.016 65.8815C106.916 66.3535 108.07 66.5895 109.477 66.5895C110.575 66.5895 111.531 66.4222 112.344 66.088C113.157 65.7538 113.783 65.262 114.223 64.6129C114.662 63.9639 114.882 63.1674 114.882 62.2234H119.628C119.628 64.0132 119.189 65.498 118.31 66.678C117.453 67.8581 116.255 68.7431 114.717 69.3331C113.179 69.9033 111.421 70.1887 109.444 70.1887Z" fill="white"/>
<path d="M130.98 70.1888C129.068 70.1888 127.464 69.9034 126.167 69.3332C124.871 68.7432 123.893 67.8485 123.234 66.6486C122.575 65.4488 122.245 63.9248 122.245 62.0759C122.245 60.2077 122.575 58.6833 123.234 57.5033C123.893 56.3034 124.86 55.4184 126.135 54.8482C127.431 54.2581 129.013 53.9631 130.881 53.9631C132.638 53.9631 134.122 54.2485 135.33 54.8187C136.539 55.3695 137.451 56.2347 138.066 57.4148C138.681 58.575 138.989 60.0796 138.989 61.9284V62.9905H126.893C126.936 63.8953 127.09 64.6624 127.354 65.2916C127.639 65.9208 128.068 66.3928 128.639 66.7076C129.233 67.0026 130.012 67.1501 130.98 67.1501C131.507 67.1501 131.979 67.0911 132.397 66.9731C132.836 66.8551 133.21 66.6781 133.518 66.4421C133.825 66.2061 134.067 65.9111 134.243 65.5571C134.418 65.2031 134.506 64.7997 134.506 64.3475H138.989C138.989 65.3307 138.791 66.1863 138.396 66.9141C138 67.642 137.451 68.2514 136.748 68.7432C136.044 69.2152 135.198 69.5789 134.21 69.8347C133.243 70.0707 132.166 70.1888 130.98 70.1888ZM126.959 60.3944H134.276C134.276 59.8044 134.188 59.2932 134.012 58.8603C133.858 58.4275 133.638 58.0735 133.353 57.7983C133.067 57.5231 132.715 57.3263 132.298 57.2083C131.903 57.0704 131.452 57.0018 130.947 57.0018C130.111 57.0018 129.408 57.1294 128.837 57.3853C128.288 57.6213 127.859 57.9951 127.552 58.5063C127.266 58.9981 127.068 59.6274 126.959 60.3944Z" fill="white"/>
<path d="M142.35 69.8347V54.3171H146.141L146.503 56.4412H146.734C147.129 55.93 147.602 55.4875 148.151 55.1137C148.722 54.7398 149.359 54.455 150.063 54.2581C150.766 54.0613 151.535 53.9631 152.37 53.9631C153.512 53.9631 154.512 54.1498 155.369 54.5237C156.226 54.8975 156.886 55.4875 157.347 56.2937C157.83 57.0999 158.072 58.1523 158.072 59.4503V69.8347H153.491V60.0994C153.491 59.6075 153.425 59.1945 153.293 58.8603C153.161 58.5063 152.963 58.221 152.7 58.0048C152.458 57.7688 152.15 57.6015 151.777 57.5033C151.403 57.4051 150.985 57.3558 150.524 57.3558C149.843 57.3558 149.228 57.5033 148.679 57.7983C148.129 58.0933 147.701 58.4966 147.393 59.0078C147.085 59.519 146.932 60.109 146.932 60.7779V69.8347H142.35Z" fill="white"/>
<path d="M167.352 70.1887C166.253 70.1887 165.364 70.0117 164.683 69.6577C164.001 69.3037 163.507 68.8317 163.199 68.2417C162.892 67.6318 162.738 66.9634 162.738 66.2356V57.4738H160.596V54.3171H162.903L163.76 49.892H167.319V54.3171H170.483V57.4738H167.319V65.5571C167.319 66.0291 167.44 66.3928 167.682 66.6486C167.924 66.8846 168.319 67.0026 168.869 67.0026H170.483V69.7167C170.22 69.7955 169.912 69.8642 169.561 69.9232C169.209 70.0021 168.836 70.0611 168.44 70.1002C168.045 70.1592 167.682 70.1887 167.352 70.1887Z" fill="white"/>
<path d="M181.32 70.1888C179.409 70.1888 177.805 69.9034 176.509 69.3332C175.212 68.7432 174.234 67.8485 173.575 66.6486C172.916 65.4488 172.586 63.9248 172.586 62.0759C172.586 60.2077 172.916 58.6833 173.575 57.5033C174.234 56.3034 175.201 55.4184 176.476 54.8482C177.772 54.2581 179.354 53.9631 181.222 53.9631C182.98 53.9631 184.463 54.2485 185.671 54.8187C186.88 55.3695 187.792 56.2347 188.407 57.4148C189.022 58.575 189.33 60.0796 189.33 61.9284V62.9905H177.234C177.277 63.8953 177.431 64.6624 177.695 65.2916C177.98 65.9208 178.409 66.3928 178.981 66.7076C179.574 67.0026 180.354 67.1501 181.32 67.1501C181.848 67.1501 182.32 67.0911 182.738 66.9731C183.177 66.8551 183.551 66.6781 183.859 66.4421C184.166 66.2061 184.408 65.9111 184.584 65.5571C184.759 65.2031 184.847 64.7997 184.847 64.3475H189.33C189.33 65.3307 189.132 66.1863 188.737 66.9141C188.341 67.642 187.792 68.2514 187.089 68.7432C186.385 69.2152 185.539 69.5789 184.551 69.8347C183.584 70.0707 182.507 70.1888 181.32 70.1888ZM177.299 60.3944H184.617C184.617 59.8044 184.529 59.2932 184.353 58.8603C184.199 58.4275 183.979 58.0735 183.694 57.7983C183.408 57.5231 183.056 57.3263 182.639 57.2083C182.244 57.0704 181.793 57.0018 181.288 57.0018C180.452 57.0018 179.749 57.1294 179.178 57.3853C178.629 57.6213 178.2 57.9951 177.893 58.5063C177.607 58.9981 177.409 59.6274 177.299 60.3944Z" fill="white"/>
<path d="M192.691 69.8347V54.3171H196.482L196.844 56.7362H197.075C197.294 56.225 197.58 55.7627 197.932 55.3496C198.283 54.9168 198.723 54.5729 199.25 54.3171C199.778 54.0613 200.393 53.9336 201.096 53.9336C201.47 53.9336 201.81 53.9728 202.118 54.0516C202.425 54.1106 202.656 54.1696 202.81 54.2286V57.9457H201.393C200.711 57.9457 200.107 58.0342 199.58 58.2113C199.074 58.3684 198.646 58.6243 198.295 58.9783C197.943 59.3323 197.679 59.7651 197.504 60.2763C197.35 60.7875 197.273 61.3877 197.273 62.0759V69.8347H192.691Z" fill="white"/>
<mask id="mask0_9_2" style="mask-type:alpha" maskUnits="userSpaceOnUse" x="24" y="12" width="50" height="61">
<path d="M33.2174 13.1423C27.6555 12.9579 25.235 17.8287 24.72 20.2871C24.8058 34.3462 24.9775 63.2942 24.9775 66.6131C24.9775 69.932 29.5266 71.8371 31.415 72.375H56.1349C58.4524 71.9141 69.0099 69.1483 72.6148 58.5464C75.4988 50.0648 67.8084 43.6422 63.6024 41.491C69.1644 37.4346 70.8984 31.9647 71.0699 29.7367C72.3058 17.3831 60.4264 13.5265 54.3324 13.1423C49.6116 13.2191 38.7794 13.3267 33.2174 13.1423Z" fill="black" stroke="black"/>
</mask>
<g mask="url(#mask0_9_2)">
<path d="M68.4948 13.1372H19.57V18.6687H68.4948V13.1372Z" fill="white"/>
<path d="M73.1299 21.8954H40.1699V27.4268H73.1299V21.8954Z" fill="white"/>
<path d="M73.1298 30.6535H49.4398V36.185H73.1298V30.6535Z" fill="white"/>
<path d="M71.5849 39.1812H6.69502V44.7126H71.5849V39.1812Z" fill="white"/>
<path d="M76.7348 48.6307H41.7149V54.1622H76.7348V48.6307Z" fill="white"/>
<path d="M75.7049 57.3889H46.8649V62.9204H75.7049V57.3889Z" fill="white"/>
<path d="M71.5849 67.0689H21.115V72.6004H71.5849V67.0689Z" fill="white"/>
</g>
<path d="M85.7472 11.5239V74.9052" stroke="white" stroke-width="3"/>
<path d="M0 39.1812H31.4149V44.7127H3.09724L0 39.1812Z" fill="white"/>
<path d="M6.97594 53.9317L4.63501 48.8612H17.51L15.0019 53.9317H6.97594Z" fill="white"/>
<path d="M9.90804 72.3699L8.01599 57.6194H14.4199L12.9645 72.3699H9.90804Z" fill="white"/>
<path d="M2.25296 25.7716C0.0802045 29.7829 3.79205 33.4044 5.91958 34.7138C3.71322 30.8244 5.74778 27.169 6.0354 26.6875C6.0354 26.6875 9.25456 22.7261 10.7983 19.182C12.3916 15.5239 11.2775 11.3266 10.5915 9.7085C10.0618 12.5436 8.5609 18.6722 6.79497 20.5062C5.02901 22.3402 3.03115 24.7807 2.25296 25.7716Z" fill="white"/>
<path d="M12.4678 23.0671C14.6925 20.636 14.2608 15.7275 13.767 13.5771C14.3812 14.481 15.5971 17.2124 15.5464 20.9076C15.483 25.5267 13.5932 27.2643 12.0504 29.3713C10.8161 31.0568 10.8452 34.587 11.0139 36.1414C10.3449 35.8042 8.8034 34.4632 7.9894 31.7972C6.97186 28.4646 9.68704 26.1058 12.4678 23.0671Z" fill="white"/>
<path d="M15.9401 28.7188C13.8379 31.1582 13.4581 34.7705 13.525 35.896C18.8825 33.9129 19.6657 31.7471 20.456 27.5268C21.0881 24.1506 19.7144 20.6762 18.9485 19.3611C19.8746 21.6591 17.9227 26.4181 15.9401 28.7188Z" fill="white"/>
<path d="M99.6872 0.251404H100.776V5.57859C100.776 6.1286 100.631 6.61966 100.341 7.0518C100.054 7.48132 99.6491 7.82049 99.1254 8.06931C98.6016 8.31551 97.9872 8.43858 97.2822 8.43858C96.5767 8.43858 95.9623 8.31551 95.4385 8.06931C94.9148 7.82049 94.5079 7.48132 94.2185 7.0518C93.9316 6.61966 93.7885 6.1286 93.7885 5.57859V0.251404H94.8766V5.5C94.8766 5.89287 94.9735 6.2425 95.1666 6.54895C95.3597 6.85276 95.6347 7.09241 95.9916 7.26785C96.3516 7.44071 96.7816 7.52714 97.2822 7.52714C97.7823 7.52714 98.2128 7.44071 98.5723 7.26785C98.9323 7.09241 99.2073 6.85276 99.3978 6.54895C99.5909 6.2425 99.6872 5.89287 99.6872 5.5V0.251404Z" fill="white"/>
<path d="M103.845 4.6672V8.29722H102.809V2.2629H103.81V3.20576H103.898C104.055 2.89933 104.295 2.65314 104.617 2.46718C104.939 2.27861 105.355 2.18433 105.864 2.18433C106.32 2.18433 106.72 2.26813 107.063 2.43575C107.404 2.60076 107.671 2.85219 107.861 3.19004C108.051 3.52529 108.147 3.94957 108.147 4.46291V8.29722H107.11V4.52577C107.11 4.05171 106.973 3.68243 106.698 3.4179C106.423 3.15076 106.045 3.01718 105.565 3.01718C105.235 3.01718 104.939 3.08135 104.679 3.20969C104.422 3.33802 104.218 3.52529 104.069 3.77148C103.919 4.01767 103.845 4.31624 103.845 4.6672Z" fill="white"/>
<path d="M110.039 8.29719V2.26287H111.075V8.29719H110.039ZM110.566 1.25715C110.364 1.25715 110.19 1.1956 110.044 1.0725C109.9 0.949411 109.829 0.801435 109.829 0.628577C109.829 0.455717 109.9 0.30774 110.044 0.184644C110.19 0.0615481 110.364 0 110.566 0C110.768 0 110.941 0.0615481 111.084 0.184644C111.23 0.30774 111.304 0.455717 111.304 0.628577C111.304 0.801435 111.23 0.949411 111.084 1.0725C110.941 1.1956 110.768 1.25715 110.566 1.25715Z" fill="white"/>
<path d="M118.485 2.26288L115.992 8.2972H114.939L112.446 2.26288H113.569L115.43 7.07147H115.5L117.362 2.26288H118.485Z" fill="white"/>
<path d="M122.438 8.42292C121.788 8.42292 121.228 8.29459 120.756 8.03793C120.288 7.77864 119.927 7.41721 119.672 6.95362C119.421 6.48746 119.295 5.94529 119.295 5.32719C119.295 4.7091 119.421 4.16434 119.672 3.6929C119.927 3.21885 120.281 2.84957 120.735 2.58504C121.191 2.3179 121.723 2.18433 122.332 2.18433C122.683 2.18433 123.03 2.2367 123.372 2.34147C123.715 2.44623 124.027 2.61647 124.307 2.85219C124.588 3.08528 124.812 3.39433 124.979 3.77933C125.146 4.16434 125.229 4.63839 125.229 5.20149V5.59436H120.032V4.7929H124.176C124.176 4.45243 124.1 4.14862 123.947 3.88147C123.798 3.61433 123.585 3.4035 123.307 3.24898C123.032 3.09445 122.707 3.01718 122.332 3.01718C121.92 3.01718 121.563 3.10885 121.262 3.29219C120.963 3.4729 120.733 3.70862 120.572 3.99934C120.411 4.29005 120.331 4.60172 120.331 4.93432V5.46861C120.331 5.92436 120.418 6.31064 120.594 6.62754C120.773 6.94187 121.02 7.18147 121.336 7.3465C121.652 7.50889 122.019 7.59007 122.438 7.59007C122.71 7.59007 122.955 7.556 123.175 7.48792C123.397 7.41721 123.589 7.31243 123.75 7.17364C123.911 7.03222 124.035 6.85673 124.123 6.64723L125.124 6.89863C125.018 7.20245 124.841 7.46957 124.593 7.70005C124.344 7.92794 124.037 8.10601 123.671 8.23434C123.305 8.36009 122.894 8.42292 122.438 8.42292Z" fill="white"/>
<path d="M126.805 8.29719V2.26287H127.806V3.1743H127.876C127.999 2.87573 128.221 2.63347 128.543 2.44751C128.865 2.26156 129.228 2.16858 129.631 2.16858C129.708 2.16858 129.803 2.16989 129.917 2.17251C130.031 2.17513 130.117 2.17906 130.176 2.1843V3.12716C130.141 3.1193 130.06 3.10752 129.934 3.0918C129.812 3.07347 129.681 3.0643 129.544 3.0643C129.216 3.0643 128.923 3.12585 128.666 3.24895C128.411 3.36942 128.209 3.53704 128.06 3.7518C127.914 3.96395 127.841 4.20621 127.841 4.4786V8.29719H126.805Z" fill="white"/>
<path d="M136.179 3.61433L135.248 3.85005C135.19 3.71124 135.104 3.57635 134.989 3.4454C134.879 3.31183 134.726 3.20183 134.533 3.1154C134.34 3.02897 134.093 2.98576 133.791 2.98576C133.379 2.98576 133.035 3.07088 132.76 3.24112C132.488 3.40874 132.352 3.62219 132.352 3.88147C132.352 4.11195 132.445 4.29398 132.633 4.42755C132.82 4.56113 133.113 4.67245 133.51 4.76146L134.511 4.98147C135.114 5.11243 135.563 5.31281 135.859 5.58256C136.154 5.84968 136.302 6.19411 136.302 6.61579C136.302 6.96151 136.191 7.27053 135.968 7.54291C135.749 7.81529 135.442 8.03009 135.047 8.18723C134.651 8.34437 134.192 8.42292 133.668 8.42292C132.981 8.42292 132.412 8.28938 131.961 8.02221C131.511 7.75509 131.225 7.36484 131.105 6.85148L132.088 6.63151C132.182 6.95625 132.359 7.19982 132.619 7.36221C132.883 7.52461 133.227 7.60578 133.651 7.60578C134.134 7.60578 134.517 7.5141 134.801 7.33078C135.088 7.14483 135.231 6.92219 135.231 6.6629C135.231 6.4534 135.149 6.27791 134.985 6.13649C134.821 5.99244 134.57 5.88504 134.23 5.81433L133.107 5.57864C132.489 5.44768 132.036 5.24468 131.746 4.96967C131.459 4.69209 131.316 4.34505 131.316 3.92862C131.316 3.58814 131.422 3.28695 131.636 3.02504C131.853 2.76314 132.147 2.55754 132.518 2.40825C132.893 2.25897 133.317 2.18433 133.791 2.18433C134.458 2.18433 134.982 2.31528 135.363 2.57718C135.746 2.83909 136.018 3.18481 136.179 3.61433Z" fill="white"/>
<path d="M137.861 8.29719V2.26287H138.897V8.29719H137.861ZM138.388 1.25715C138.186 1.25715 138.012 1.1956 137.866 1.0725C137.722 0.949411 137.65 0.801435 137.65 0.628577C137.65 0.455717 137.722 0.30774 137.866 0.184644C138.012 0.0615481 138.186 0 138.388 0C138.59 0 138.762 0.0615481 138.906 0.184644C139.052 0.30774 139.125 0.455717 139.125 0.628577C139.125 0.801435 139.052 0.949411 138.906 1.0725C138.762 1.1956 138.59 1.25715 138.388 1.25715Z" fill="white"/>
<path d="M143.34 8.42287C142.778 8.42287 142.282 8.29587 141.852 8.04179C141.422 7.78513 141.085 7.4237 140.843 6.95754C140.6 6.4887 140.478 5.93477 140.478 5.2957C140.478 4.66189 140.6 4.1119 140.843 3.64571C141.085 3.17952 141.423 2.8194 141.856 2.56535C142.289 2.31129 142.79 2.18427 143.358 2.18427C143.796 2.18427 144.143 2.24975 144.398 2.3807C144.655 2.50904 144.852 2.6557 144.986 2.82071C145.124 2.98309 145.23 3.11666 145.306 3.22142H145.394V0.251404H146.43V8.29716H145.429V7.37H145.306C145.23 7.48003 145.122 7.61882 144.981 7.78643C144.841 7.95145 144.641 8.09941 144.38 8.23037C144.12 8.3587 143.773 8.42287 143.34 8.42287ZM143.481 7.59001C143.896 7.59001 144.247 7.49312 144.534 7.29929C144.821 7.10288 145.039 6.83179 145.188 6.48607C145.337 6.13773 145.412 5.73573 145.412 5.27998C145.412 4.82954 145.339 4.43536 145.193 4.0975C145.046 3.75702 144.829 3.49249 144.543 3.30392C144.256 3.11273 143.902 3.01713 143.481 3.01713C143.041 3.01713 142.676 3.11797 142.383 3.31963C142.094 3.51868 141.875 3.78976 141.729 4.13285C141.586 4.47333 141.514 4.85572 141.514 5.27998C141.514 5.70955 141.588 6.09979 141.734 6.45072C141.883 6.79906 142.103 7.07669 142.392 7.28357C142.684 7.48786 143.048 7.59001 143.481 7.59001Z" fill="white"/>
<path d="M150.455 8.43864C150.028 8.43864 149.64 8.36664 149.292 8.22259C148.944 8.07591 148.667 7.86507 148.462 7.59007C148.257 7.31243 148.155 6.97723 148.155 6.58435C148.155 6.23864 148.231 5.95838 148.383 5.74362C148.535 5.52623 148.739 5.356 148.993 5.23293C149.248 5.1098 149.529 5.01817 149.836 4.95792C150.146 4.89505 150.458 4.84531 150.771 4.80862C151.18 4.76146 151.513 4.72611 151.768 4.70255C152.025 4.67637 152.212 4.63313 152.329 4.57291C152.449 4.51267 152.509 4.40791 152.509 4.25862V4.22719C152.509 3.83957 152.391 3.53838 152.154 3.32362C151.919 3.10885 151.564 3.00147 151.087 3.00147C150.592 3.00147 150.205 3.09838 149.924 3.29219C149.643 3.486 149.445 3.6929 149.332 3.91291L148.348 3.59862C148.524 3.23195 148.758 2.94647 149.05 2.74218C149.346 2.53528 149.668 2.39123 150.016 2.31004C150.367 2.22623 150.712 2.18433 151.052 2.18433C151.268 2.18433 151.517 2.20789 151.798 2.25504C152.082 2.29956 152.356 2.39254 152.619 2.53397C152.885 2.6754 153.106 2.88885 153.282 3.17433C153.457 3.45981 153.545 3.84219 153.545 4.32148V8.29722H152.509V7.48008H152.457C152.386 7.61104 152.269 7.75112 152.105 7.90043C151.942 8.04973 151.723 8.17672 151.451 8.2815C151.179 8.38627 150.847 8.43864 150.455 8.43864ZM150.613 7.60578C151.023 7.60578 151.368 7.53378 151.649 7.38969C151.933 7.24569 152.146 7.05969 152.29 6.83184C152.436 6.60399 152.509 6.36434 152.509 6.11294V5.26436C152.465 5.31147 152.369 5.35471 152.219 5.39398C152.073 5.43063 151.903 5.4634 151.71 5.49221C151.52 5.5184 151.334 5.54195 151.153 5.56292C150.974 5.58127 150.83 5.59694 150.718 5.61008C150.449 5.64147 150.197 5.69254 149.963 5.76325C149.732 5.83138 149.545 5.93482 149.402 6.07362C149.261 6.20983 149.191 6.39578 149.191 6.63151C149.191 6.95362 149.324 7.19719 149.59 7.36222C149.859 7.52461 150.2 7.60578 150.613 7.60578Z" fill="white"/>
<path d="M157.981 8.42287C157.42 8.42287 156.924 8.29587 156.493 8.04179C156.063 7.78513 155.727 7.4237 155.484 6.95754C155.241 6.4887 155.12 5.93477 155.12 5.2957C155.12 4.66189 155.241 4.1119 155.484 3.64571C155.727 3.17952 156.065 2.8194 156.498 2.56535C156.931 2.31129 157.431 2.18427 157.999 2.18427C158.438 2.18427 158.784 2.24975 159.039 2.3807C159.297 2.50904 159.492 2.6557 159.627 2.82071C159.765 2.98309 159.872 3.11666 159.948 3.22142H160.035V0.251404H161.071V8.29716H160.07V7.37H159.948C159.872 7.48003 159.763 7.61882 159.623 7.78643C159.482 7.95145 159.282 8.09941 159.022 8.23037C158.761 8.3587 158.415 8.42287 157.981 8.42287ZM158.122 7.59001C158.537 7.59001 158.888 7.49312 159.175 7.29929C159.462 7.10288 159.68 6.83179 159.829 6.48607C159.979 6.13773 160.053 5.73573 160.053 5.27998C160.053 4.82954 159.98 4.43536 159.833 4.0975C159.687 3.75702 159.471 3.49249 159.184 3.30392C158.897 3.11273 158.543 3.01713 158.122 3.01713C157.683 3.01713 157.317 3.11797 157.025 3.31963C156.735 3.51868 156.517 3.78976 156.371 4.13285C156.227 4.47333 156.155 4.85572 156.155 5.27998C156.155 5.70955 156.228 6.09979 156.375 6.45072C156.524 6.79906 156.743 7.07669 157.033 7.28357C157.326 7.48786 157.688 7.59001 158.122 7.59001Z" fill="white"/>
<path d="M166.237 1.11569V0.251404H172.979V1.11569H170.152V8.29716H169.064V1.11569H166.237Z" fill="white"/>
<path d="M175.585 8.43864C175.158 8.43864 174.77 8.36664 174.422 8.22259C174.074 8.07591 173.798 7.86507 173.593 7.59007C173.388 7.31243 173.285 6.97723 173.285 6.58435C173.285 6.23864 173.361 5.95838 173.513 5.74362C173.666 5.52623 173.869 5.356 174.124 5.23293C174.378 5.1098 174.659 5.01817 174.966 4.95792C175.277 4.89505 175.588 4.84531 175.901 4.80862C176.311 4.76146 176.643 4.72611 176.897 4.70255C177.155 4.67637 177.342 4.63313 177.459 4.57291C177.579 4.51267 177.64 4.40791 177.64 4.25862V4.22719C177.64 3.83957 177.521 3.53838 177.284 3.32362C177.05 3.10885 176.695 3.00147 176.217 3.00147C175.723 3.00147 175.335 3.09838 175.054 3.29219C174.773 3.486 174.576 3.6929 174.461 3.91291L173.478 3.59862C173.654 3.23195 173.888 2.94647 174.181 2.74218C174.476 2.53528 174.798 2.39123 175.146 2.31004C175.498 2.22623 175.843 2.18433 176.182 2.18433C176.399 2.18433 176.648 2.20789 176.928 2.25504C177.212 2.29956 177.486 2.39254 177.749 2.53397C178.015 2.6754 178.236 2.88885 178.412 3.17433C178.588 3.45981 178.675 3.84219 178.675 4.32148V8.29722H177.64V7.48008H177.587C177.516 7.61104 177.4 7.75112 177.236 7.90043C177.072 8.04973 176.854 8.17672 176.582 8.2815C176.309 8.38627 175.978 8.43864 175.585 8.43864ZM175.743 7.60578C176.153 7.60578 176.498 7.53378 176.779 7.38969C177.063 7.24569 177.276 7.05969 177.42 6.83184C177.566 6.60399 177.64 6.36434 177.64 6.11294V5.26436C177.596 5.31147 177.499 5.35471 177.35 5.39398C177.203 5.43063 177.034 5.4634 176.841 5.49221C176.65 5.5184 176.465 5.54195 176.283 5.56292C176.105 5.58127 175.96 5.59694 175.849 5.61008C175.58 5.64147 175.328 5.69254 175.094 5.76325C174.863 5.83138 174.675 5.93482 174.532 6.07362C174.391 6.20983 174.321 6.39578 174.321 6.63151C174.321 6.95362 174.454 7.19719 174.721 7.36222C174.99 7.52461 175.331 7.60578 175.743 7.60578Z" fill="white"/>
<path d="M180.566 8.29722V2.2629H181.567V3.20576H181.654C181.795 2.88361 182.022 2.63349 182.335 2.4554C182.648 2.27468 183.024 2.18433 183.463 2.18433C183.908 2.18433 184.278 2.27468 184.573 2.4554C184.872 2.63349 185.104 2.88361 185.271 3.20576H185.341C185.514 2.89409 185.773 2.64659 186.118 2.46325C186.463 2.2773 186.878 2.18433 187.361 2.18433C187.963 2.18433 188.456 2.35325 188.84 2.69111C189.223 3.02635 189.414 3.54885 189.414 4.25862V8.29722H188.379V4.25862C188.379 3.81338 188.243 3.49517 187.97 3.30397C187.698 3.11278 187.378 3.01718 187.009 3.01718C186.535 3.01718 186.168 3.14552 185.908 3.40219C185.647 3.65624 185.517 3.97838 185.517 4.36862V8.29722H184.464V4.16434C184.464 3.82124 184.339 3.54493 184.09 3.3354C183.842 3.12326 183.521 3.01718 183.129 3.01718C182.86 3.01718 182.608 3.08135 182.374 3.20969C182.143 3.33802 181.956 3.51612 181.813 3.74398C181.672 3.96922 181.602 4.22981 181.602 4.52577V8.29722H180.566Z" fill="white"/>
<path d="M193.292 8.43864C192.865 8.43864 192.478 8.36664 192.129 8.22259C191.781 8.07591 191.504 7.86507 191.3 7.59007C191.095 7.31243 190.992 6.97723 190.992 6.58435C190.992 6.23864 191.069 5.95838 191.221 5.74362C191.373 5.52623 191.576 5.356 191.831 5.23293C192.085 5.1098 192.366 5.01817 192.673 4.95792C192.984 4.89505 193.295 4.84531 193.609 4.80862C194.018 4.76146 194.35 4.72611 194.605 4.70255C194.862 4.67637 195.05 4.63313 195.166 4.57291C195.286 4.51267 195.347 4.40791 195.347 4.25862V4.22719C195.347 3.83957 195.228 3.53838 194.991 3.32362C194.757 3.10885 194.401 3.00147 193.924 3.00147C193.43 3.00147 193.042 3.09838 192.761 3.29219C192.48 3.486 192.283 3.6929 192.169 3.91291L191.185 3.59862C191.361 3.23195 191.595 2.94647 191.888 2.74218C192.184 2.53528 192.505 2.39123 192.854 2.31004C193.205 2.22623 193.55 2.18433 193.889 2.18433C194.106 2.18433 194.355 2.20789 194.635 2.25504C194.919 2.29956 195.193 2.39254 195.456 2.53397C195.723 2.6754 195.944 2.88885 196.119 3.17433C196.295 3.45981 196.382 3.84219 196.382 4.32148V8.29722H195.347V7.48008H195.294C195.224 7.61104 195.107 7.75112 194.943 7.90043C194.779 8.04973 194.561 8.17672 194.289 8.2815C194.016 8.38627 193.684 8.43864 193.292 8.43864ZM193.45 7.60578C193.86 7.60578 194.205 7.53378 194.486 7.38969C194.77 7.24569 194.984 7.05969 195.127 6.83184C195.274 6.60399 195.347 6.36434 195.347 6.11294V5.26436C195.302 5.31147 195.206 5.35471 195.057 5.39398C194.91 5.43063 194.741 5.4634 194.548 5.49221C194.357 5.5184 194.171 5.54195 193.99 5.56292C193.812 5.58127 193.667 5.59694 193.556 5.61008C193.287 5.64147 193.035 5.69254 192.801 5.76325C192.57 5.83138 192.382 5.93482 192.239 6.07362C192.099 6.20983 192.028 6.39578 192.028 6.63151C192.028 6.95362 192.161 7.19719 192.428 7.36222C192.697 7.52461 193.038 7.60578 193.45 7.60578Z" fill="white"/>
<path d="M202.522 5.83003V2.26288H203.558V8.2972H202.522V7.27577H202.452C202.294 7.58221 202.048 7.84279 201.714 8.05755C201.381 8.26968 200.959 8.37579 200.45 8.37579C200.029 8.37579 199.654 8.29328 199.327 8.12826C198.999 7.96066 198.741 7.7092 198.554 7.374C198.367 7.03612 198.273 6.61052 198.273 6.0972V2.26288H199.309V6.03433C199.309 6.47435 199.447 6.82528 199.722 7.08719C199.999 7.34911 200.354 7.48006 200.784 7.48006C201.041 7.48006 201.303 7.42111 201.57 7.30329C201.838 7.18542 202.064 7.00468 202.245 6.76111C202.43 6.51754 202.522 6.20718 202.522 5.83003Z" fill="white"/>
<path d="M206.491 0.251404V8.29716H205.455V0.251404H206.491Z" fill="white"/>
<path d="M208.388 8.29719V2.26287H209.424V8.29719H208.388ZM208.915 1.25715C208.712 1.25715 208.538 1.1956 208.392 1.0725C208.249 0.949411 208.177 0.801435 208.177 0.628577C208.177 0.455717 208.249 0.30774 208.392 0.184644C208.538 0.0615481 208.712 0 208.915 0C209.117 0 209.289 0.0615481 209.432 0.184644C209.579 0.30774 209.652 0.455717 209.652 0.628577C209.652 0.801435 209.579 0.949411 209.432 1.0725C209.289 1.1956 209.117 1.25715 208.915 1.25715Z" fill="white"/>
<path d="M211.321 10.5601V2.2629H212.322V3.22147H212.445C212.521 3.11671 212.626 2.98314 212.761 2.82076C212.898 2.65575 213.094 2.50909 213.349 2.38075C213.606 2.2498 213.955 2.18433 214.393 2.18433C214.961 2.18433 215.461 2.31135 215.895 2.5654C216.328 2.81945 216.666 3.17957 216.909 3.64576C217.151 4.11195 217.273 4.66194 217.273 5.29575C217.273 5.93482 217.151 6.48875 216.909 6.95759C216.666 7.42375 216.329 7.78519 215.899 8.04185C215.469 8.29592 214.973 8.42292 214.411 8.42292C213.978 8.42292 213.631 8.35875 213.371 8.23042C213.111 8.09947 212.91 7.9515 212.77 7.78648C212.629 7.61887 212.521 7.48008 212.445 7.37005H212.357V10.5601H211.321ZM212.339 5.28004C212.339 5.73578 212.414 6.13778 212.563 6.48612C212.712 6.83184 212.93 7.10293 213.217 7.29934C213.504 7.49317 213.855 7.59007 214.27 7.59007C214.703 7.59007 215.065 7.48792 215.354 7.28362C215.647 7.07675 215.867 6.79911 216.013 6.45077C216.162 6.09984 216.237 5.7096 216.237 5.28004C216.237 4.85577 216.164 4.47339 216.017 4.13291C215.874 3.78981 215.656 3.51874 215.364 3.31969C215.074 3.11802 214.71 3.01718 214.27 3.01718C213.849 3.01718 213.495 3.11278 213.208 3.30397C212.921 3.49254 212.705 3.75707 212.559 4.09755C212.412 4.43541 212.339 4.82959 212.339 5.28004Z" fill="white"/>
<path d="M221.68 8.42292C221.03 8.42292 220.469 8.29459 219.999 8.03793C219.53 7.77864 219.169 7.41721 218.914 6.95362C218.663 6.48746 218.537 5.94529 218.537 5.32719C218.537 4.7091 218.663 4.16434 218.914 3.6929C219.169 3.21885 219.523 2.84957 219.977 2.58504C220.433 2.3179 220.965 2.18433 221.574 2.18433C221.925 2.18433 222.272 2.2367 222.614 2.34147C222.957 2.44623 223.268 2.61647 223.549 2.85219C223.83 3.08528 224.054 3.39433 224.221 3.77933C224.387 4.16434 224.471 4.63839 224.471 5.20149V5.59436H219.274V4.7929H223.418C223.418 4.45243 223.341 4.14862 223.19 3.88147C223.04 3.61433 222.827 3.4035 222.548 3.24898C222.273 3.09445 221.948 3.01718 221.574 3.01718C221.162 3.01718 220.805 3.10885 220.503 3.29219C220.205 3.4729 219.975 3.70862 219.814 3.99934C219.653 4.29005 219.573 4.60172 219.573 4.93432V5.46861C219.573 5.92436 219.66 6.31064 219.836 6.62754C220.015 6.94187 220.262 7.18147 220.578 7.3465C220.894 7.50889 221.261 7.59007 221.68 7.59007C221.952 7.59007 222.197 7.556 222.417 7.48792C222.639 7.41721 222.831 7.31243 222.992 7.17364C223.153 7.03222 223.277 6.85673 223.365 6.64723L224.366 6.89863C224.26 7.20245 224.083 7.46957 223.834 7.70005C223.586 7.92794 223.279 8.10601 222.913 8.23434C222.547 8.36009 222.136 8.42292 221.68 8.42292Z" fill="white"/>
<path d="M228.786 8.42292C228.154 8.42292 227.609 8.28938 227.153 8.02221C226.696 7.75509 226.345 7.38711 226.099 6.91827C225.854 6.44948 225.731 5.91385 225.731 5.31147C225.731 4.69863 225.857 4.15779 226.108 3.68898C226.362 3.21754 226.717 2.84957 227.171 2.58504C227.627 2.3179 228.159 2.18433 228.768 2.18433C229.242 2.18433 229.669 2.2629 230.05 2.42004C230.43 2.57718 230.742 2.79718 230.985 3.08004C231.228 3.3629 231.378 3.6929 231.437 4.07005H230.401C230.322 3.79505 230.146 3.55148 229.874 3.33933C229.605 3.12457 229.242 3.01718 228.786 3.01718C228.382 3.01718 228.027 3.11147 227.724 3.30004C227.422 3.486 227.186 3.74921 227.017 4.08969C226.85 4.42755 226.767 4.82434 226.767 5.28004C226.767 5.74624 226.849 6.15221 227.012 6.49792C227.179 6.84364 227.413 7.1121 227.714 7.3033C228.019 7.49446 228.376 7.59007 228.786 7.59007C229.055 7.59007 229.299 7.54816 229.518 7.46436C229.738 7.38056 229.924 7.26007 230.076 7.10293C230.228 6.94579 230.336 6.75721 230.401 6.5372H231.437C231.378 6.89338 231.233 7.21425 231.002 7.49972C230.774 7.78256 230.471 8.00783 230.094 8.17543C229.719 8.34045 229.283 8.42292 228.786 8.42292Z" fill="white"/>
<path d="M234.935 8.43864C234.508 8.43864 234.12 8.36664 233.772 8.22259C233.424 8.07591 233.147 7.86507 232.942 7.59007C232.737 7.31243 232.635 6.97723 232.635 6.58435C232.635 6.23864 232.711 5.95838 232.863 5.74362C233.015 5.52623 233.219 5.356 233.473 5.23293C233.728 5.1098 234.009 5.01817 234.316 4.95792C234.626 4.89505 234.938 4.84531 235.251 4.80862C235.66 4.76146 235.993 4.72611 236.247 4.70255C236.505 4.67637 236.692 4.63313 236.809 4.57291C236.929 4.51267 236.989 4.40791 236.989 4.25862V4.22719C236.989 3.83957 236.871 3.53838 236.634 3.32362C236.399 3.10885 236.044 3.00147 235.567 3.00147C235.072 3.00147 234.685 3.09838 234.404 3.29219C234.123 3.486 233.925 3.6929 233.811 3.91291L232.828 3.59862C233.003 3.23195 233.238 2.94647 233.53 2.74218C233.826 2.53528 234.148 2.39123 234.496 2.31004C234.847 2.22623 235.192 2.18433 235.532 2.18433C235.748 2.18433 235.997 2.20789 236.278 2.25504C236.562 2.29956 236.836 2.39254 237.099 2.53397C237.365 2.6754 237.586 2.88885 237.762 3.17433C237.937 3.45981 238.025 3.84219 238.025 4.32148V8.29722H236.989V7.48008H236.936C236.866 7.61104 236.749 7.75112 236.585 7.90043C236.421 8.04973 236.203 8.17672 235.931 8.2815C235.659 8.38627 235.327 8.43864 234.935 8.43864ZM235.093 7.60578C235.503 7.60578 235.848 7.53378 236.129 7.38969C236.413 7.24569 236.626 7.05969 236.77 6.83184C236.916 6.60399 236.989 6.36434 236.989 6.11294V5.26436C236.945 5.31147 236.848 5.35471 236.7 5.39398C236.553 5.43063 236.383 5.4634 236.19 5.49221C236 5.5184 235.814 5.54195 235.633 5.56292C235.454 5.58127 235.31 5.59694 235.198 5.61008C234.929 5.64147 234.677 5.69254 234.443 5.76325C234.212 5.83138 234.025 5.93482 233.882 6.07362C233.741 6.20983 233.671 6.39578 233.671 6.63151C233.671 6.95362 233.804 7.19719 234.07 7.36222C234.339 7.52461 234.68 7.60578 235.093 7.60578Z" fill="white"/>
</svg>
